
<svg width="48px" height="48px" viewBox="0 0 48 48" version="1.1" xmlns="http://www.w3.org/2000/svg" xmlns:xlink="http://www.w3.org/1999/xlink">
    <!-- Generator: Sketch 49.1 (51147) - http://www.bohemiancoding.com/sketch -->
    <desc>Created with Sketch.</desc>
    <defs></defs>
    <g id="Symbols" stroke="none" stroke-width="1" fill="none" fill-rule="evenodd">
        <g id="icons/age/6+">
            <rect id="Rectangle" stroke="#000000" stroke-width="2" x="1" y="1" width="46" height="46"></rect>
            <path d="M22.1171875,18 L22.1171875,19.859375 L21.8984375,19.859375 C20.8775991,19.8750001 20.0559927,20.1406224 19.4335938,20.65625 C18.8111948,21.1718776 18.4375006,21.8880162 18.3125,22.8046875 C18.9166697,22.1901011 19.6796829,21.8828125 20.6015625,21.8828125 C21.5911508,21.8828125 22.3776012,22.2369756 22.9609375,22.9453125 C23.5442738,23.6536494 23.8359375,24.5859317 23.8359375,25.7421875 C23.8359375,26.4817745 23.6757829,27.1510387 23.3554688,27.75 C23.0351546,28.3489613 22.5820342,28.8151025 21.9960938,29.1484375 C21.4101533,29.4817725 20.7473995,29.6484375 20.0078125,29.6484375 C18.8098898,29.6484375 17.8424516,29.231775 17.1054688,28.3984375 C16.3684859,27.5651 16,26.453132 16,25.0625 L16,24.25 C16,23.0156188 16.2330706,21.925786 16.6992188,20.9804688 C17.1653669,20.0351515 17.8346311,19.303388 18.7070312,18.7851562 C19.5794314,18.2669245 20.5911401,18.0052084 21.7421875,18 L22.1171875,18 Z M19.9140625,23.6953125 C19.5494773,23.6953125 19.2187515,23.7903636 18.921875,23.9804688 C18.6249985,24.1705739 18.4062507,24.4218734 18.265625,24.734375 L18.265625,25.421875 C18.265625,26.1770871 18.414061,26.766925 18.7109375,27.1914062 C19.007814,27.6158875 19.4244765,27.828125 19.9609375,27.828125 C20.4453149,27.828125 20.8372381,27.6367207 21.1367188,27.2539062 C21.4361994,26.8710918 21.5859375,26.375003 21.5859375,25.765625 C21.5859375,25.1458302 21.4348973,24.6458352 21.1328125,24.265625 C20.8307277,23.8854148 20.4244817,23.6953125 19.9140625,23.6953125 Z M29.8203125,23.125 L32.640625,23.125 L32.640625,25.1640625 L29.8203125,25.1640625 L29.8203125,28.3515625 L27.671875,28.3515625 L27.671875,25.1640625 L24.84375,25.1640625 L24.84375,23.125 L27.671875,23.125 L27.671875,20.0703125 L29.8203125,20.0703125 L29.8203125,23.125 Z" id="6+" fill="#000000"></path>
        </g>
    </g>
</svg>
