
<svg width="24px" height="24px" viewBox="0 0 24 24" version="1.1" xmlns="http://www.w3.org/2000/svg" xmlns:xlink="http://www.w3.org/1999/xlink">
    <!-- Generator: Sketch 49.1 (51147) - http://www.bohemiancoding.com/sketch -->
    <desc>Created with Sketch.</desc>
    <defs></defs>
    <g id="Symbols" stroke="none" stroke-width="1" fill="none" fill-rule="evenodd">
        <g id="icon/social/facebook" fill="#000000">
            <path d="M15.0677379,24 L15.0677379,15.7891675 L17.8242139,15.7891675 L18.2368749,12.5888627 L15.0677379,12.5888627 L15.0677379,10.5455049 C15.0677379,9.61919934 15.3245602,8.98836404 16.6535531,8.98836404 L18.3478321,8.98711733 L18.3478321,6.12467101 C18.0548552,6.08602299 17.0487602,6 15.8780995,6 C13.4357944,6 11.7627095,7.48981853 11.7627095,10.2288406 L11.7627095,12.5888627 L9,12.5888627 L9,15.7891675 L11.7627095,15.7891675 L11.7627095,24 L1.32510143,24 C0.592697125,24 0,23.4073377 0,22.6763876 L0,1.32502352 C0,0.592662277 0.592697125,0 1.32510143,0 L22.6763098,0 C23.4087141,0 24,0.592662277 24,1.32502352 L24,22.6763876 C24,23.4073377 23.4087141,24 22.6763098,24 L15.0677379,24 Z" id="Combined-Shape"></path>
        </g>
    </g>
</svg>
