<svg
   xmlns="http://www.w3.org/2000/svg"
   xmlns:xlink="http://www.w3.org/1999/xlink"
   version="1.1"
   id="Layer_1"
   x="0px"
   y="0px"
   width="263.51001"
   height="90.860001"
   viewBox="0 0 263.51 90.86"
   enable-background="new 0 0 1133.86 385.512"
>
<g
   id="g3"
   transform="translate(-812.21059,-142.6997)">
	<polygon
   points="911.514,180.653 906.456,180.653 906.456,150.551 911.514,150.551 911.514,162.645 921.893,162.645 921.893,150.551 926.95,150.551 926.95,180.653 921.893,180.653 921.893,166.734 911.514,166.734 "
   id="polygon5" />
	<polygon
   points="949.356,154.639 938.274,154.639 938.274,162.863 947.556,162.863 947.556,166.949 938.274,166.949 938.274,176.391 950.455,176.391 950.455,180.653 933.13,180.653 933.13,150.551 950.018,150.551 "
   id="polygon7" />
	<g
   id="g9">
		<defs
   id="defs11">
			<rect
   id="SVGID_1_"
   x="812.31799"
   y="142.67799"
   width="263.58401"
   height="90.834999" />
		</defs>
		<clipPath
   id="SVGID_2_">
			<use
   xlink:href="#SVGID_1_"
   overflow="visible"
   id="use15"
   style="overflow:visible"
   x="0"
   y="0"
   width="1133.86"
   height="385.51199" />
		</clipPath>
		<path
   clip-path="url(#SVGID_2_)"
   d="m 974.698,172.126 c 0,2.989 -1.013,5.154 -3.037,6.504 -2.019,1.349 -4.968,2.023 -8.835,2.023 h -8.842 v -30.102 h 8.065 c 1.146,0 2.117,0.021 2.909,0.064 0.792,0.044 1.491,0.125 2.094,0.24 0.604,0.117 1.14,0.269 1.608,0.455 0.471,0.19 0.94,0.429 1.41,0.719 2.295,1.451 3.438,3.423 3.438,5.917 0,1.624 -0.449,3.002 -1.347,4.132 -0.896,1.131 -2.197,1.944 -3.902,2.438 1.257,0.319 2.298,0.744 3.132,1.282 0.831,0.538 1.488,1.151 1.969,1.849 0.481,0.695 0.824,1.427 1.028,2.198 0.209,0.767 0.31,1.529 0.31,2.281 m -6.553,-13.354 c 0,-0.899 -0.227,-1.688 -0.681,-2.371 -0.456,-0.68 -1.05,-1.153 -1.781,-1.413 -0.323,-0.116 -0.696,-0.202 -1.12,-0.261 -0.427,-0.058 -1.007,-0.088 -1.736,-0.088 h -3.783 v 8.265 h 4.176 c 0.938,0 1.672,-0.063 2.197,-0.193 0.532,-0.131 1.043,-0.443 1.541,-0.937 0.468,-0.493 0.786,-1.014 0.946,-1.567 0.16,-0.548 0.241,-1.027 0.241,-1.435 m 0.924,12.919 c 0,-1.101 -0.265,-2.058 -0.792,-2.869 -0.528,-0.813 -1.217,-1.335 -2.067,-1.566 -0.382,-0.116 -0.764,-0.189 -1.142,-0.218 -0.386,-0.03 -0.941,-0.043 -1.673,-0.043 h -4.353 v 9.57 h 4.485 c 1.933,0 3.341,-0.471 4.221,-1.414 0.881,-0.941 1.321,-2.096 1.321,-3.46"
   id="path17"
    />
		<path
   clip-path="url(#SVGID_2_)"
   d="m 998.545,178.434 c -2.347,1.771 -5.118,2.655 -8.313,2.655 -2.022,0 -3.834,-0.371 -5.433,-1.11 -1.599,-0.741 -2.998,-1.819 -4.197,-3.241 -2.317,-2.785 -3.475,-6.321 -3.475,-10.613 0,-3.566 0.674,-6.598 2.023,-9.093 1.143,-2.175 2.704,-3.872 4.683,-5.089 1.979,-1.219 4.154,-1.827 6.533,-1.827 1.493,0 2.899,0.202 4.22,0.608 1.317,0.407 2.434,0.987 3.342,1.741 l -2.332,3.263 c -0.819,-0.58 -1.657,-1.008 -2.508,-1.284 -0.849,-0.275 -1.743,-0.413 -2.68,-0.413 -1.319,0 -2.492,0.313 -3.521,0.935 -1.022,0.625 -1.875,1.515 -2.549,2.676 -0.528,0.927 -0.922,2.029 -1.185,3.306 -0.267,1.275 -0.398,2.797 -0.398,4.568 0,1.798 0.094,3.269 0.285,4.415 0.191,1.145 0.492,2.139 0.903,2.98 0.673,1.451 1.599,2.524 2.77,3.22 1.173,0.696 2.506,1.042 4.002,1.042 1.083,0 2.053,-0.152 2.902,-0.457 0.852,-0.303 1.701,-0.79 2.551,-1.456 l 2.377,3.174 z"
   id="path19"
    />
		<path
   clip-path="url(#SVGID_2_)"
   d="m 1023.228,153.595 -1.407,0.348 c -0.294,0.06 -0.594,0.139 -0.901,0.24 -0.309,0.102 -0.58,0.269 -0.813,0.5 -0.235,0.234 -0.426,0.529 -0.572,0.892 -0.146,0.364 -0.265,0.719 -0.354,1.066 l -0.79,3.133 c -0.147,0.637 -0.329,1.261 -0.549,1.869 -0.222,0.611 -0.639,1.205 -1.256,1.784 -0.614,0.552 -1.332,0.959 -2.154,1.219 v 0.086 c 0.323,0.116 0.637,0.256 0.945,0.414 0.309,0.158 0.625,0.385 0.947,0.673 0.585,0.524 1.012,1.06 1.274,1.61 0.265,0.552 0.484,1.161 0.661,1.828 l 1.361,4.828 c 0.294,1.103 0.633,1.812 1.014,2.132 0.176,0.174 0.447,0.348 0.813,0.521 0.366,0.174 0.712,0.304 1.033,0.391 l 1.32,0.392 -0.923,3.523 -1.672,-0.172 c -0.353,-0.029 -0.74,-0.073 -1.168,-0.13 -0.425,-0.059 -0.85,-0.153 -1.274,-0.284 -0.425,-0.13 -0.843,-0.297 -1.253,-0.5 -0.411,-0.203 -0.792,-0.464 -1.143,-0.783 -0.588,-0.581 -0.97,-1.218 -1.145,-1.913 -0.175,-0.697 -0.337,-1.365 -0.484,-2.002 l -1.01,-4.611 c -0.118,-0.465 -0.279,-0.979 -0.486,-1.545 -0.202,-0.565 -0.514,-1.037 -0.923,-1.414 -0.468,-0.405 -0.979,-0.658 -1.539,-0.761 -0.557,-0.103 -1.041,-0.152 -1.45,-0.152 h -2.901 v 13.876 h -5.059 v -30.101 h 5.059 v 12.136 h 3.341 c 0.496,0 1.019,-0.051 1.563,-0.152 0.54,-0.102 1.045,-0.37 1.516,-0.804 0.409,-0.407 0.688,-0.871 0.835,-1.392 0.147,-0.524 0.279,-1.002 0.396,-1.437 l 0.835,-3.655 c 0.116,-0.491 0.288,-1.065 0.505,-1.718 0.221,-0.653 0.598,-1.225 1.123,-1.717 0.498,-0.493 1.056,-0.812 1.673,-0.958 0.615,-0.144 1.363,-0.29 2.241,-0.434 l 1.805,-0.262 0.966,3.436 z"
   id="path21"
    />
		<path
   clip-path="url(#SVGID_2_)"
   d="m 1043.336,180.653 v -17.27 c 0,-0.375 0.01,-0.818 0.021,-1.327 0.017,-0.507 0.038,-1.043 0.066,-1.61 0.029,-0.565 0.06,-1.122 0.089,-1.674 0.028,-0.55 0.058,-1.045 0.087,-1.48 -0.322,0.959 -0.666,1.865 -1.033,2.719 -0.367,0.856 -0.754,1.691 -1.163,2.502 l -9.106,18.14 h -5.232 v -30.102 h 5.058 v 17.443 c 0,0.437 -0.01,0.907 -0.02,1.415 -0.018,0.506 -0.039,1.021 -0.068,1.544 -0.03,0.521 -0.066,1.022 -0.11,1.499 -0.045,0.48 -0.082,0.908 -0.107,1.285 0.38,-1.102 0.753,-2.065 1.119,-2.893 0.366,-0.827 0.769,-1.689 1.21,-2.588 l 8.795,-17.705 h 5.452 v 30.102 h -5.058 z"
   id="path23"
    />
		<path
   clip-path="url(#SVGID_2_)"
   d="m 1070.845,180.653 v -17.269 c 0,-0.376 0.01,-0.819 0.022,-1.327 0.014,-0.508 0.035,-1.044 0.064,-1.61 0.031,-0.566 0.061,-1.123 0.088,-1.675 0.031,-0.55 0.06,-1.045 0.09,-1.48 -0.324,0.96 -0.669,1.865 -1.035,2.72 -0.366,0.856 -0.756,1.69 -1.166,2.502 l -9.102,18.139 h -5.233 v -30.102 h 5.057 v 17.443 c 0,0.437 -0.01,0.907 -0.022,1.415 -0.014,0.507 -0.038,1.022 -0.064,1.544 -0.029,0.521 -0.066,1.022 -0.112,1.499 -0.042,0.48 -0.081,0.908 -0.11,1.285 0.381,-1.102 0.758,-2.065 1.124,-2.893 0.368,-0.826 0.771,-1.688 1.21,-2.588 l 8.794,-17.705 h 5.454 v 30.102 h -5.059 z m 1.275,-36.584 c -0.177,0.494 -0.405,0.965 -0.683,1.413 -0.279,0.45 -0.578,0.835 -0.9,1.155 -0.556,0.578 -1.261,1.043 -2.11,1.391 -0.851,0.347 -1.893,0.522 -3.124,0.522 -0.79,0 -1.679,-0.131 -2.66,-0.391 -0.984,-0.26 -1.884,-0.812 -2.705,-1.652 -0.322,-0.32 -0.617,-0.698 -0.881,-1.132 -0.262,-0.435 -0.481,-0.87 -0.658,-1.306 l 2.506,-1.348 c 0.235,0.406 0.508,0.761 0.813,1.066 0.309,0.304 0.609,0.542 0.901,0.718 0.412,0.26 0.837,0.435 1.278,0.52 0.438,0.089 0.892,0.131 1.36,0.131 0.501,0 0.961,-0.042 1.385,-0.131 0.426,-0.085 0.843,-0.26 1.257,-0.52 0.174,-0.117 0.43,-0.321 0.77,-0.61 0.335,-0.289 0.649,-0.697 0.942,-1.217 l 2.509,1.391 z"
   id="path25"
    />
		<polygon
   clip-path="url(#SVGID_2_)"
   points="921.409,195.781 926.466,195.781 926.466,221.777 929.589,221.777 929.589,233.513 924.795,233.513 924.795,225.863 906.455,225.863 906.455,195.781 911.514,195.781 911.514,221.777 921.409,221.777 "
   id="polygon27" />
		<polygon
   clip-path="url(#SVGID_2_)"
   points="949.578,199.869 938.494,199.869 938.494,208.083 947.774,208.083 947.774,212.169 938.494,212.169 938.494,221.602 950.676,221.602 950.676,225.863 933.35,225.863 933.35,195.781 950.236,195.781 "
   id="polygon29" />
		<polygon
   clip-path="url(#SVGID_2_)"
   points="959.031,225.863 953.975,225.863 953.975,195.781 959.031,195.781 959.031,207.866 969.41,207.866 969.41,195.781 974.467,195.781 974.467,225.863 969.41,225.863 969.41,211.952 959.031,211.952 "
   id="polygon31" />
		<polygon
   clip-path="url(#SVGID_2_)"
   points="984.559,225.863 984.559,199.955 976.864,199.955 976.864,195.78 997.93,195.78 997.271,199.955 989.618,199.955 989.618,225.863 "
   id="polygon33" />
		<path
   clip-path="url(#SVGID_2_)"
   d="m 1019.49,204.78 c 0,1.478 -0.257,2.813 -0.77,3.998 -0.513,1.188 -1.21,2.196 -2.09,3.021 -0.879,0.827 -1.922,1.464 -3.122,1.913 -1.205,0.449 -2.49,0.675 -3.871,0.675 h -5.1 v 11.476 h -5.058 v -30.082 h 8.092 c 1.114,0 2.065,0.03 2.856,0.087 0.794,0.058 1.482,0.147 2.067,0.262 0.588,0.116 1.102,0.262 1.541,0.436 0.439,0.172 0.864,0.39 1.275,0.651 1.35,0.781 2.382,1.824 3.1,3.128 0.72,1.305 1.08,2.783 1.08,4.435 m -5.628,0.261 c 0,-1.682 -0.412,-2.941 -1.233,-3.781 -0.47,-0.49 -1.041,-0.863 -1.715,-1.108 -0.675,-0.245 -1.51,-0.371 -2.505,-0.371 h -3.871 v 10.608 h 3.871 c 1.875,0 3.251,-0.436 4.132,-1.306 0.881,-0.87 1.321,-2.215 1.321,-4.042"
   id="path35"
    />
		<path
   clip-path="url(#SVGID_2_)"
   d="m 843.419,150.559 c -0.467,0.9 -1.153,2.288 -1.457,2.963 -0.483,1.069 -1.108,2.471 -1.862,4.194 -0.763,1.727 -1.622,3.693 -2.589,5.898 -0.621,1.317 -1.212,2.626 -1.758,3.936 0.546,-0.137 1.137,-0.309 1.758,-0.52 1.928,-0.617 3.761,-1.099 5.488,-1.445 1.659,-0.278 3.138,-0.49 4.45,-0.626 0.413,-0.961 0.652,-1.589 0.722,-1.859 l 1.24,-2.902 c 0.761,-1.863 1.713,-3.105 2.848,-3.724 1.137,-0.621 2.504,-0.926 4.095,-0.926 0.959,0 1.375,0.237 1.24,0.72 0,0.206 -0.231,0.565 -0.673,1.086 -0.452,0.521 -0.956,1.048 -1.501,1.603 l -2.176,2.171 c -0.415,0.559 -0.897,1.436 -1.45,2.641 -0.554,1.208 -1.082,2.518 -1.605,3.935 -0.518,1.412 -0.979,2.809 -1.394,4.193 -0.412,1.379 -0.693,2.516 -0.827,3.415 -0.561,2.691 -0.145,4.038 1.241,4.038 0.482,0 1.188,-0.241 2.116,-0.727 0.574,-0.292 1.15,-0.668 1.714,-1.012 2.322,-1.803 2.693,-2.696 3.256,-4.094 0.597,-1.489 0.689,-2.377 1.31,-2.862 0.62,-0.483 1.295,-0.757 2.021,-0.83 0.721,-0.07 1.704,-0.101 2.944,-0.101 0.348,0 0.52,0.205 0.52,0.614 0,0.489 -1.825,3.66 -5.485,9.524 -0.553,0.832 -1.136,1.915 -1.761,3.264 -0.617,1.348 -1.189,2.689 -1.703,4.038 -0.521,1.342 -0.957,2.605 -1.298,3.781 -0.348,1.172 -0.517,2.03 -0.517,2.587 0,0.962 0.312,1.442 0.933,1.442 0.896,0 2.066,-0.548 3.517,-1.656 1.449,-1.101 3.018,-2.571 4.707,-4.4 1.696,-1.826 3.402,-3.878 5.129,-6.155 1.722,-2.278 3.31,-4.557 4.758,-6.828 l 0.31,-1.145 c 0.554,-2.065 1.416,-3.479 2.589,-4.24 1.176,-0.76 2.688,-1.139 4.552,-1.139 1.11,0 1.657,0.272 1.657,0.828 0,0.205 -0.202,0.601 -0.615,1.188 -0.415,0.589 -0.885,1.207 -1.402,1.863 -0.515,0.663 -1.001,1.245 -1.446,1.763 -0.453,0.514 -0.678,0.813 -0.678,0.882 -0.342,0.613 -0.708,1.635 -1.087,3.048 -0.373,1.416 -0.721,2.937 -1.03,4.558 -0.312,1.619 -0.571,3.241 -0.775,4.864 -0.21,1.62 -0.312,2.947 -0.312,3.98 0,3.109 0.788,4.658 2.38,4.658 0.552,0 1.173,-0.201 1.865,-0.614 l 2.07,-1.35 c 0.269,-0.204 0.548,-0.412 0.828,-0.618 0.202,-0.348 0.34,-0.624 0.414,-0.829 0.135,-0.275 0.415,-0.38 0.829,-0.314 0.342,0.066 0.513,0.415 0.513,1.041 v 0.309 c -0.071,0.48 -0.272,1.035 -0.619,1.654 -0.553,2.417 -1.586,4.383 -3.105,5.902 -1.515,1.517 -3.297,2.774 -5.328,3.772 -2.039,1.002 -4.243,1.832 -6.628,2.486 -2.383,0.653 -4.713,1.323 -6.985,2.021 -6.369,1.956 -8.553,3.8 -9.761,5.21 -4.006,4.674 -0.044,10.154 4.973,10.154 h 0.218 c 11.06,0 22.177,-13.109 25.221,-12.462 2.407,0.509 0.923,2.746 -0.486,1.475 -1.124,-1.015 -3.072,3.73 -13.298,10.987 h 21.397 v -75.31 h -44.212 z"
   id="path37"
   
   style="fill:#f47920" />
		<path
   clip-path="url(#SVGID_2_)"
   d="m 851.443,209.052 c 2.009,-0.753 4.264,-1.313 6.68,-1.86 2.415,-0.555 4.899,-1.107 7.45,-1.657 2.553,-0.551 4.883,-1.257 6.995,-2.121 2.095,-0.862 3.808,-1.951 5.115,-3.258 1.105,-1.041 1.795,-2.313 2.07,-3.834 -0.761,0.554 -1.48,1.107 -2.174,1.658 -0.689,0.552 -1.436,1.018 -2.226,1.395 -0.794,0.381 -1.606,0.568 -2.435,0.568 -1.517,-0.068 -2.659,-0.614 -3.411,-1.657 -0.762,-1.028 -1.143,-2.656 -1.143,-4.861 0,-0.692 0.071,-1.656 0.212,-2.897 0.135,-1.242 0.287,-2.485 0.462,-3.725 0.173,-1.243 0.347,-2.368 0.519,-3.37 0.177,-0.997 0.262,-1.67 0.262,-2.015 -9.112,11.659 -15.355,17.496 -18.74,17.496 -2.553,0 -3.826,-1.349 -3.826,-4.038 0,-2.347 0.758,-5.143 2.273,-8.383 0.14,-0.21 0.539,-0.951 1.191,-2.232 0.656,-1.271 1.64,-3.119 2.955,-5.535 h -0.11 c -0.046,0.039 -0.069,0.067 -0.114,0.106 -1.034,0.829 -2.171,1.568 -3.413,2.224 -1.24,0.654 -2.416,0.98 -3.519,0.98 -2.622,0 -3.556,-1.925 -2.798,-5.796 0.068,-0.614 0.329,-1.601 0.776,-2.944 0.447,-1.347 0.914,-2.708 1.401,-4.093 0.343,-0.895 0.653,-1.758 0.93,-2.588 -0.276,0 -0.587,0.04 -0.93,0.107 -1.654,0.206 -3.525,0.619 -5.594,1.241 -1.863,0.554 -3.727,1.207 -5.589,1.966 l -0.098,0.21 c -0.902,2.137 -1.763,4.138 -2.593,5.999 -0.825,1.866 -1.483,3.313 -1.961,4.348 -0.146,0.281 -0.474,0.57 -0.987,0.877 -0.514,0.316 -1.056,0.606 -1.604,0.885 -0.55,0.269 -1.108,0.516 -1.655,0.722 -0.561,0.207 -0.934,0.308 -1.141,0.308 -0.414,0 -0.623,-0.101 -0.623,-0.308 v -0.206 c 1.729,-2.898 3.419,-6.177 5.075,-9.834 0.067,-0.134 0.103,-0.273 0.103,-0.413 1.726,-3.793 3.584,-8.002 5.584,-12.632 0,-0.135 -0.17,-0.203 -0.515,-0.203 -0.344,0 -0.512,-0.105 -0.512,-0.31 0,-0.067 2.544,-4.677 5.023,-8.813 h -26.493 v 75.309 h 38.244 c -7.194,-1.577 -10.025,-12.733 0.884,-16.816"
   id="path39"
   
   style="fill:#f47920" />
	</g>
</g>
</svg>