<?xml version="1.0" encoding="UTF-8" standalone="no"?>
<svg
   xmlns:dc="http://purl.org/dc/elements/1.1/"
   xmlns:cc="http://creativecommons.org/ns#"
   xmlns:rdf="http://www.w3.org/1999/02/22-rdf-syntax-ns#"
   xmlns:svg="http://www.w3.org/2000/svg"
   xmlns="http://www.w3.org/2000/svg"
   viewBox="0 0 795.97467 1124.788"
   height="1124.788"
   width="795.97467"
   xml:space="preserve"
   id="svg2"
   version="1.1"><metadata
     id="metadata8"><rdf:RDF><cc:Work
         rdf:about=""><dc:format>image/svg+xml</dc:format><dc:type
           rdf:resource="http://purl.org/dc/dcmitype/StillImage" /></cc:Work></rdf:RDF></metadata><defs
     id="defs6"><clipPath
       id="clipPath20"
       clipPathUnits="userSpaceOnUse"><path
         id="path18"
         d="M 0,843.591 H 596.981 V 0 H 0 Z" /></clipPath></defs><g
     transform="matrix(1.3333333,0,0,-1.3333333,0,1124.788)"
     id="g10"><path
       id="path12"
       style="fill:#000000;fill-opacity:1;fill-rule:nonzero;stroke:none"
       d="M 527.097,222.184 H 102.419 v 410.745 h 424.678 z" /><g
       id="g14"><g
         clip-path="url(#clipPath20)"
         id="g16"><g
           transform="translate(214.0422,507.649)"
           id="g22"><path
             id="path24"
             style="fill:#fffefe;fill-opacity:1;fill-rule:nonzero;stroke:none"
             d="m 0,0 h 7.802 c 2.395,0 4.211,0.652 5.447,1.958 1.237,1.305 1.855,2.968 1.855,4.991 0,2.06 -0.613,3.763 -1.84,5.108 -1.227,1.344 -3.047,2.016 -5.462,2.016 L 0,14.073 Z M 0,-6.625 V -22.171 H -8.597 V 20.698 H 7.802 c 4.927,0 8.804,-1.256 11.63,-3.769 2.827,-2.512 4.24,-5.819 4.24,-9.922 0,-4.102 -1.413,-7.4 -4.24,-9.893 -2.826,-2.492 -6.703,-3.739 -11.63,-3.739 z" /></g><g
           transform="translate(330.2829,510.8288)"
           id="g26"><path
             id="path28"
             style="fill:#fffefe;fill-opacity:1;fill-rule:nonzero;stroke:none"
             d="m 0,0 c 0,3.337 -0.835,6.075 -2.503,8.214 -1.668,2.14 -3.974,3.21 -6.919,3.21 -2.905,0 -5.167,-1.07 -6.786,-3.21 -1.62,-2.139 -2.43,-4.877 -2.43,-8.214 v -7.773 c 0,-3.396 0.815,-6.164 2.444,-8.303 1.629,-2.14 3.906,-3.209 6.831,-3.209 2.944,0 5.241,1.069 6.89,3.209 1.649,2.139 2.473,4.907 2.473,8.303 z m 8.568,-7.773 c 0,-5.28 -1.659,-9.633 -4.976,-13.058 -3.317,-3.426 -7.636,-5.138 -12.955,-5.138 -5.3,0 -9.598,1.717 -12.896,5.153 -3.297,3.434 -4.946,7.782 -4.946,13.043 v 7.714 c 0,5.241 1.643,9.584 4.931,13.028 3.288,3.445 7.572,5.168 12.852,5.168 5.319,0 9.647,-1.723 12.984,-5.168 C 6.899,9.525 8.568,5.182 8.568,-0.059 Z" /></g><g
           transform="translate(414.5483,507.649)"
           id="g30"><path
             id="path32"
             style="fill:#fffefe;fill-opacity:1;fill-rule:nonzero;stroke:none"
             d="m 0,0 h 7.802 c 2.395,0 4.211,0.652 5.447,1.958 1.237,1.305 1.855,2.968 1.855,4.991 0,2.06 -0.613,3.763 -1.84,5.108 -1.227,1.344 -3.047,2.016 -5.462,2.016 L 0,14.073 Z M 0,-6.625 V -22.171 H -8.597 V 20.698 H 7.802 c 4.927,0 8.804,-1.256 11.63,-3.769 2.827,-2.512 4.24,-5.819 4.24,-9.922 0,-4.102 -1.413,-7.4 -4.24,-9.893 -2.826,-2.492 -6.703,-3.739 -11.63,-3.739 z" /></g><g
           transform="translate(338.2029,443.2627)"
           id="g34"><path
             id="path36"
             style="fill:#fffefe;fill-opacity:1;fill-rule:nonzero;stroke:none"
             d="m 0,0 v -28.059 c 0,-4.829 -1.6,-8.608 -4.799,-11.336 -3.2,-2.728 -7.351,-4.092 -12.455,-4.092 -5.084,0 -9.211,1.364 -12.38,4.092 -3.17,2.728 -4.755,6.507 -4.755,11.336 V 0 h 8.627 v -28.059 c 0,-2.866 0.765,-5.055 2.296,-6.566 1.531,-1.511 3.602,-2.267 6.212,-2.267 2.65,0 4.75,0.756 6.301,2.267 1.55,1.511 2.326,3.7 2.326,6.566 V 0 Z" /></g><g
           transform="translate(414.5483,422.5645)"
           id="g38"><path
             id="path40"
             style="fill:#fffefe;fill-opacity:1;fill-rule:nonzero;stroke:none"
             d="m 0,0 h 7.802 c 2.395,0 4.211,0.652 5.447,1.958 1.237,1.305 1.855,2.968 1.855,4.991 0,2.06 -0.613,3.763 -1.84,5.108 -1.227,1.344 -3.047,2.016 -5.462,2.016 L 0,14.073 Z M 0,-6.625 V -22.171 H -8.597 V 20.698 H 7.802 c 4.927,0 8.804,-1.256 11.63,-3.769 2.827,-2.512 4.24,-5.819 4.24,-9.922 0,-4.102 -1.413,-7.4 -4.24,-9.893 -2.826,-2.492 -6.703,-3.739 -11.63,-3.739 z" /></g><g
           transform="translate(227.4288,355.9543)"
           id="g42"><path
             id="path44"
             style="fill:#fffefe;fill-opacity:1;fill-rule:nonzero;stroke:none"
             d="m 0,0 h -8.062 v -23.856 h -5.659 V 0 h -7.946 V 4.361 H 0 Z" /></g><g
           transform="translate(275.5072,344.5013)"
           id="g46"><path
             id="path48"
             style="fill:#fffefe;fill-opacity:1;fill-rule:nonzero;stroke:none"
             d="M 0,0 H -10.465 V -8.062 H 1.977 v -4.341 H -16.124 V 15.814 H 1.938 V 11.453 H -10.465 V 4.361 H 0 Z" /></g><g
           transform="translate(317.3535,342.7162)"
           id="g50"><path
             id="path52"
             style="fill:#fffefe;fill-opacity:1;fill-rule:nonzero;stroke:none"
             d="M 0,0 H 6.433 L 3.285,10.031 H 3.168 Z m 7.822,-4.478 h -9.23 l -1.916,-6.14 H -9.288 L 0.313,17.853 H 6.16 l 9.561,-28.471 H 9.757 Z" /></g><g
           transform="translate(384.5732,355.9543)"
           id="g54"><path
             id="path56"
             style="fill:#fffefe;fill-opacity:1;fill-rule:nonzero;stroke:none"
             d="m 0,0 h -8.062 v -23.856 h -5.659 V 0 h -7.946 V 4.361 H 0 Z" /></g><g
           transform="translate(422.1867,346.6913)"
           id="g58"><path
             id="path60"
             style="fill:#fffefe;fill-opacity:1;fill-rule:nonzero;stroke:none"
             d="M 0,0 H 5.135 C 6.712,0 7.907,0.429 8.721,1.288 9.535,2.147 9.941,3.242 9.941,4.574 9.941,5.93 9.538,7.051 8.73,7.935 7.923,8.82 6.725,9.263 5.135,9.263 H 0 Z M 0,-4.361 V -14.593 H -5.659 V 13.624 H 5.135 c 3.243,0 5.795,-0.827 7.655,-2.481 1.861,-1.654 2.791,-3.831 2.791,-6.531 0,-2.701 -0.93,-4.871 -2.791,-6.512 -1.86,-1.641 -4.412,-2.461 -7.655,-2.461 z" /></g><g
           transform="translate(231.8734,422.1711)"
           id="g62"><path
             id="path64"
             style="fill:#fffefe;fill-opacity:1;fill-rule:nonzero;stroke:none"
             d="M 0,0 V -13.253 H -5.853 V 0 h -7.211 L -2.927,14.478 7.211,0 Z m -2.927,22.925 c -12.61,0 -22.833,-10.223 -22.833,-22.834 0,-12.611 10.223,-22.834 22.833,-22.834 12.611,0 22.834,10.223 22.834,22.834 0,12.611 -10.223,22.834 -22.834,22.834" /></g></g></g></g></svg>