<svg width="155" height="60" viewBox="0 0 155 29" xmlns="http://www.w3.org/2000/svg" xmlns:xlink="http://www.w3.org/1999/xlink"><title>logo-prohelvetia-rus</title><defs><path id="a" d="M26.138 12.94H0V.504h26.138V12.94z"/></defs><g fill="none" fill-rule="evenodd"><path fill="#D8117D" d="M138.74 5.908h-.518V2.285h-1.418v-.497h3.46v.497h-1.523v3.623M144.776 1.788l-1.868 5.73h-.547l.548-1.61h-.22l-1.342-4.12h.557l1.13 3.594h.058l1.13-3.594h.556M33.242 5.908h-4.198v-4.12h.517V5.41h1.324V1.79h.518V5.41h1.323V1.79h.517v4.12M37.568 3.84c.117.103.25.248.308.334.096.142.142.316.142.508v.18c-.01.183-.046.345-.142.49-.068.116-.26.327-.394.422-.153.115-.382.183-.584.183H34.72V1.74H36.9c.202.01.43.077.584.19.134.096.326.308.394.414.096.152.142.326.142.517v.145c-.01.18-.046.345-.142.477-.06.09-.19.242-.308.357zm-2.33-1.602v1.35h1.65c.058 0 .124-.01.163-.028.155-.085.337-.28.422-.44.02-.04.028-.097.028-.163V2.86c0-.057-.008-.105-.028-.143-.085-.162-.258-.356-.412-.44-.048-.03-.114-.04-.172-.04h-1.65zM37.5 4.825v-.143c0-.057-.008-.106-.028-.145-.085-.162-.258-.344-.412-.432-.048-.027-.114-.037-.172-.037h-1.65v1.39h1.65c.058 0 .124-.01.163-.04.155-.084.337-.268.422-.43.02-.04.028-.095.028-.163zM42.18 4.93l.51.173c-.042.077-.08.135-.136.21-.078.106-.3.366-.432.46-.153.116-.373.184-.584.184h-.978c-.21 0-.442-.068-.595-.183-.133-.095-.353-.355-.43-.46-.096-.144-.143-.316-.143-.507V2.89c0-.193.047-.365.143-.51.077-.103.297-.363.43-.46.153-.113.386-.18.595-.18h.96c.21 0 .438.067.592.18.136.097.355.357.43.46.1.145.137.317.137.51v1.188h-2.77v.71c0 .065.007.123.028.16.084.165.296.386.45.47.048.03.095.04.162.04h1.007c.067 0 .125-.01.172-.04.152-.084.364-.324.44-.47l.01-.018zm-2.27-2.022v.67h2.25v-.67c0-.066 0-.123-.018-.162-.087-.164-.308-.385-.46-.47-.048-.028-.106-.038-.173-.038h-.95c-.066 0-.114.01-.162.04-.154.083-.376.304-.46.468-.02.04-.028.096-.028.162zM47.4 1.788v4.12h-.515V2.496l-2.187 3.412h-.612v-4.12h.517V5.15l2.157-3.362h.64zM46.617.044c0 .507-.413.91-.92.91-.508 0-.9-.403-.9-.91h.362c0 .296.24.546.537.546.297 0 .557-.25.557-.546h.364zM52.336 5.41l-.172 1.418h-.49l.097-.92h-2.894v-4.12h.517V5.41h2.013V1.79h.517V5.41h.413M56.41 5.908l-.057-.48c-.115.126-.26.25-.364.327-.145.106-.307.202-.47.202h-.843c-.22 0-.433-.068-.585-.183-.125-.105-.345-.345-.422-.452-.096-.142-.144-.314-.144-.508v-.19c0-.202.048-.364.144-.507.077-.106.297-.346.422-.45.152-.115.364-.185.585-.185h1.666v-.584c0-.076-.01-.124-.018-.152-.087-.164-.308-.385-.46-.47-.05-.028-.107-.038-.173-.038h-.9c-.067 0-.115.01-.164.04-.153.083-.355.314-.46.477l-.498-.163c.03-.047.077-.135.143-.22.086-.124.298-.355.43-.46.154-.116.357-.173.578-.173h.882c.22 0 .44.067.593.18.144.088.355.348.432.453.105.143.135.324.135.517v2.337l.065.68h-.517zm-.067-1.063V3.98h-1.658c-.067 0-.124.01-.172.04-.153.087-.354.29-.44.45-.02.04-.03.087-.03.155v.19c0 .068.01.115.03.154.086.16.287.364.44.45.048.028.105.038.172.038h.805c.05 0 .097-.01.134-.03.154-.076.595-.354.72-.583zM61.074 5.774c-.154.115-.373.183-.585.183h-.75c-.16 0-.343-.105-.478-.202-.115-.086-.25-.21-.373-.344v2.11h-.52V2.47l-.056-.682h.518l.057.51c.123-.137.257-.272.372-.358.135-.095.317-.2.48-.2h.747c.21 0 .43.067.584.18.134.097.355.357.43.46.098.145.145.317.145.51v1.917c0 .19-.048.363-.145.507-.076.105-.297.365-.43.46m.027-3.028c-.085-.162-.296-.385-.45-.47-.047-.028-.105-.038-.173-.038h-.71c-.047 0-.095.01-.134.03-.163.085-.594.353-.728.583-.01.02-.02.04-.02.058v1.89c0 .016.01.027.02.047.134.24.565.498.728.584.04.018.087.028.135.028h.71c.067 0 .125-.01.173-.04.153-.084.364-.305.45-.47.02-.037.028-.095.028-.16v-1.88c0-.066-.008-.123-.028-.162M65.76 5.774c-.155.115-.375.183-.586.183h-.978c-.212 0-.44-.068-.594-.183-.134-.095-.354-.355-.432-.46-.095-.144-.133-.316-.133-.507V2.89c0-.193.038-.365.133-.51.078-.103.298-.363.432-.46.154-.113.382-.18.594-.18h.95c.21 0 .43.067.584.18.24.176.44.48.564.682l-.498.164c-.076-.164-.305-.405-.46-.49-.047-.028-.105-.038-.172-.038h-.958c-.067 0-.126.01-.174.04-.153.083-.364.306-.448.468-.02.04-.03.096-.03.162v1.88c0 .065.01.123.03.16.084.165.288.386.44.47.048.03.104.04.172.04h.998c.066 0 .124-.01.172-.04.153-.084.382-.324.45-.47l.01-.018.498.173c-.114.21-.336.508-.565.67M70.166 5.908L68.49 4h-.298V5.91h-.517v-4.12h.517v1.714h.297l1.524-1.714h.71L68.95 3.752l1.965 2.156h-.75M75.385 1.788v4.12h-.518V2.496L72.68 5.908h-.612v-4.12h.517V5.15l2.157-3.362h.643M80.176 1.788v4.12h-.518V2.496l-2.185 3.412h-.614v-4.12h.517V5.15l2.156-3.362h.643zM79.39.044c0 .507-.41.91-.92.91-.508 0-.902-.403-.902-.91h.365c0 .296.24.546.536.546.296 0 .556-.25.556-.546h.364zM86.19 5.774c-.156.115-.376.183-.586.183h-.977c-.21 0-.44-.068-.595-.183-.135-.095-.354-.355-.43-.46-.096-.144-.134-.316-.134-.507V2.89c0-.193.038-.365.134-.51.076-.103.295-.363.43-.46.155-.113.384-.18.595-.18h.95c.21 0 .43.067.583.18.24.176.44.48.565.682l-.497.164c-.078-.164-.31-.405-.46-.49-.05-.028-.107-.038-.174-.038h-.958c-.067 0-.124.01-.17.04-.155.083-.367.306-.453.468-.02.04-.03.096-.03.162v1.88c0 .065.01.123.03.16.086.165.29.386.44.47.05.03.108.04.174.04h.997c.066 0 .124-.01.172-.04.153-.084.384-.324.45-.47l.01-.018.498.173c-.115.21-.335.508-.565.67M91.193 5.314c-.075.105-.297.365-.43.46-.154.115-.383.183-.595.183h-.957c-.21 0-.44-.068-.594-.183-.134-.095-.355-.355-.43-.46-.096-.144-.135-.318-.135-.507V2.89c0-.193.04-.365.136-.51.075-.103.296-.363.43-.46.155-.113.383-.18.595-.18h.958c.212 0 .44.067.595.18.133.097.355.357.43.46.096.145.135.317.135.51v1.917c0 .19-.04.363-.135.507m-.382-2.406c0-.066 0-.123-.018-.162-.087-.164-.307-.385-.46-.47-.048-.028-.107-.038-.173-.038h-.94c-.066 0-.125.01-.173.04-.153.083-.364.304-.45.468-.02.04-.03.096-.03.162v1.88c0 .065.01.123.03.16.086.165.297.386.45.47.048.03.107.04.173.04h.94c.065 0 .124-.01.172-.04.153-.084.373-.305.46-.47.02-.037.02-.095.02-.16v-1.88M95.603 3.84c.114.103.25.248.306.334.095.142.143.316.143.508v.18c-.01.183-.048.345-.144.49-.07.116-.26.327-.394.422-.153.115-.383.183-.585.183h-2.174V1.74h2.175c.203.01.433.077.586.19.134.096.324.308.393.414.095.152.143.326.143.517v.145c-.01.18-.048.345-.144.477-.058.09-.193.242-.307.357zm-2.33-1.602v1.35h1.65c.056 0 .123-.01.162-.028.154-.085.335-.28.422-.44.018-.04.027-.097.027-.163V2.86c0-.057-.01-.105-.027-.143-.087-.162-.26-.356-.413-.44-.048-.03-.115-.04-.172-.04h-1.65zm2.26 2.587v-.143c0-.057-.008-.106-.026-.145-.087-.162-.26-.344-.413-.432-.048-.027-.115-.037-.172-.037h-1.65v1.39h1.65c.057 0 .124-.01.163-.04.154-.084.335-.268.422-.43.018-.04.027-.095.027-.163zM100.212 4.93l.51.173c-.038.077-.077.135-.134.21-.078.106-.298.366-.433.46-.153.116-.372.184-.584.184h-.977c-.21 0-.44-.068-.594-.183-.133-.095-.355-.355-.43-.46-.096-.144-.144-.316-.144-.507V2.89c0-.193.048-.365.143-.51.075-.103.297-.363.43-.46.152-.113.383-.18.593-.18h.96c.21 0 .44.067.593.18.134.097.355.357.432.46.094.145.135.317.135.51v1.188h-2.77v.71c0 .065.008.123.03.16.084.165.296.386.448.47.05.03.098.04.163.04h1.01c.065 0 .122-.01.17-.04.153-.084.365-.324.44-.47l.01-.018zm-2.27-2.022v.67h2.252v-.67c0-.066 0-.123-.018-.162-.09-.164-.308-.385-.46-.47-.05-.028-.107-.038-.172-.038h-.95c-.068 0-.115.01-.163.04-.153.083-.373.304-.458.468-.02.04-.03.096-.03.162zM103.813 5.908h-.516V2.285h-1.42v-.497h3.46v.497h-1.524v3.623M111.475 1.788v4.12h-.517V2.285h-2.1v3.623h-.515v-4.12h3.132M116.048 5.314c-.077.105-.297.365-.432.46-.153.115-.384.183-.594.183h-.96c-.21 0-.44-.068-.593-.183-.136-.095-.355-.355-.434-.46-.096-.144-.132-.318-.132-.507V2.89c0-.193.036-.365.132-.51.08-.103.298-.363.433-.46.152-.113.383-.18.593-.18h.96c.21 0 .44.067.593.18.135.097.355.357.432.46.096.145.133.317.133.51v1.917c0 .19-.036.363-.132.507m-.384-2.406c0-.066 0-.123-.02-.162-.085-.164-.304-.385-.46-.47-.047-.028-.105-.038-.17-.038h-.94c-.068 0-.126.01-.174.04-.153.083-.363.304-.45.468-.02.04-.03.096-.03.162v1.88c0 .065.01.123.03.16.087.165.297.386.45.47.048.03.106.04.174.04h.94c.065 0 .123-.01.17-.04.156-.084.375-.305.46-.47.02-.037.02-.095.02-.16v-1.88M122.013 5.908L120.336 4h-.298V5.91h-.517v-4.12h.518v1.714h.298l1.523-1.714h.707l-1.772 1.964 1.964 2.156h-.747M127.077 1.788l-1.87 5.73h-.548l.548-1.61h-.22l-1.342-4.12h.555l1.13 3.594h.06l1.132-3.594h.555M131.48 1.788v4.12h-.518V2.285h-2.012v2.512c0 .19-.048.373-.143.517-.05.086-.316.382-.42.46-.157.115-.397.183-.597.183h-.268v-.5h.258c.058 0 .135-.01.183-.038.133-.077.384-.336.44-.47.03-.067.03-.125.03-.163v-3h3.046M136.28 4.863c-.01.182-.048.344-.143.49-.067.115-.258.326-.393.42-.153.116-.385.184-.585.184h-2.205v-4.17h.518V3.58h1.686c.2 0 .43.057.584.172.135.096.326.316.393.422.095.142.143.316.143.508v.18zm-.517-.038V4.69c0-.056-.01-.104-.028-.142-.087-.163-.258-.347-.414-.43-.047-.03-.113-.04-.17-.04h-1.677v1.38h1.676c.057 0 .123-.01.162-.04.153-.084.336-.268.423-.43.018-.04.028-.095.028-.163zM148.756 5.774c-.153.115-.372.183-.585.183h-.746c-.16 0-.345-.105-.48-.202-.114-.086-.25-.21-.372-.344v2.11h-.52V2.47l-.056-.682h.52l.056.51c.123-.137.258-.272.372-.358.135-.095.32-.2.48-.2h.747c.214 0 .433.067.586.18.135.097.356.357.432.46.095.145.144.317.144.51v1.917c0 .19-.05.363-.144.507-.076.105-.297.365-.432.46m.03-3.028c-.088-.162-.298-.385-.45-.47-.048-.028-.106-.038-.175-.038h-.706c-.048 0-.096.01-.135.03-.164.085-.595.353-.73.583-.01.02-.018.04-.018.058v1.89c0 .016.01.027.02.047.133.24.564.498.727.584.038.018.086.028.134.028h.707c.07 0 .128-.01.176-.04.152-.084.362-.305.45-.47.018-.037.027-.095.027-.16v-1.88c0-.066-.01-.123-.028-.162M153.507 4.93l.51.173c-.04.077-.078.135-.135.21-.077.106-.297.366-.432.46-.153.116-.372.184-.585.184h-.977c-.21 0-.442-.068-.594-.183-.133-.095-.354-.355-.43-.46-.096-.144-.144-.316-.144-.507V2.89c0-.193.048-.365.144-.51.076-.103.297-.363.43-.46.152-.113.383-.18.594-.18h.96c.21 0 .437.067.592.18.135.097.355.357.43.46.097.145.138.317.138.51v1.188h-2.772v.71c0 .065.01.123.03.16.085.165.297.386.45.47.05.03.097.04.163.04h1.006c.066 0 .124-.01.172-.04.152-.084.365-.324.44-.47l.01-.018zm-2.27-2.022v.67h2.25v-.67c0-.066 0-.123-.016-.162-.09-.164-.308-.385-.46-.47-.048-.028-.106-.038-.172-.038h-.95c-.066 0-.116.01-.163.04-.153.083-.374.304-.458.468-.02.04-.03.096-.03.162z"/><g transform="translate(0 16)"><mask id="b" fill="#fff"><use xlink:href="#a"/></mask><path d="M23.142.554h-2.148C19.232.554 18 1.79 18 3.546v.344h2.843V1.487h2.445V3.89h2.85v-.344c0-1.757-1.23-2.992-2.996-2.992m.146 8.043h-2.423V6.16H18v.375c0 1.763 1.232 2.993 2.994 2.993h2.148c1.765 0 2.996-1.23 2.996-2.993V6.16h-2.85v2.437M5.19.504H3.04C1.25.504 0 1.757 0 3.548v9.45L1.983 13V9.375c.005.02.083.044.083.044.363.105.67.157.975.157h2.15c1.79 0 3.04-1.25 3.04-3.04v-2.99c0-1.79-1.25-3.043-3.04-3.043m0 7.09H3.04c-.71 0-1.057-.345-1.057-1.058V3.548c0-.713.347-1.058 1.058-1.058h2.15c.69 0 1.056.366 1.056 1.058v2.988c0 .69-.366 1.057-1.056 1.058" fill="#D8117D" mask="url(#b)"/></g><path d="M34.2 16.504h-2.147c-.28 0-.6.056-.973.17l-.103.03V13.25h-1.95l-.015 12.325h1.965v-6.03c0-.68.38-1.057 1.076-1.057H34.2c.712 0 1.057.345 1.057 1.058v6.03h1.987v-6.03c0-1.79-1.25-3.044-3.044-3.044M89.924 13.264h-1.967l-.002 2.086h1.97v-2.086zm-1.967 12.313h1.967v-9.07h-1.97l.003 9.07zM84.878 18.49l.005-1.984-2.7-.002v-3.24h-1.98l-.004 3.242-1.736-.002v1.986h1.738l-.003 4.045c0 1.82 1.22 3.042 3.042 3.042h1.604v-1.97h-1.604c-.712 0-1.058-.358-1.058-1.072V18.49h2.694M54.173 23.608c-.712 0-1.056-.36-1.056-1.073V13.27h-1.97l-.002 9.265c0 1.82 1.207 3.042 3.028 3.042h1.63v-1.97h-1.63M13.793 16.513c-1.82 0-3.045 1.224-3.045 3.04v6.024h1.987v-6.023c0-.71.347-1.057 1.058-1.057h2.384v-1.982l-2.384-.002M63.97 16.514l-.885 3.14-.944 3.406c-.16.544-.172.59-.565.59-.386 0-.406-.032-.532-.482l-1.855-6.654h-2.07l1.996 7.103c.428 1.49 1.073 2.018 2.46 2.018 1.392 0 2.038-.538 2.468-2.058l1.983-7.063H63.97M45.278 16.504H43.13c-1.79 0-3.04 1.253-3.04 3.042v2.99c0 1.79 1.25 3.04 3.04 3.04h4.725v-1.97l-4.815.002c-.693 0-1.057-.38-1.057-1.073v-.52h4.953c.668 0 1.384-.524 1.384-1.395v-1.074c0-1.79-1.25-3.042-3.042-3.042m-2.148 1.873h2.148c.778 0 1.172.395 1.172 1.17v.605h-4.49v-.606c0-.753.416-1.17 1.17-1.17M73.264 16.506h-2.15c-1.79 0-3.042 1.25-3.042 3.04v2.99c0 1.792 1.252 3.04 3.043 3.04h4.724v-1.97l-4.814.002c-.693 0-1.057-.382-1.057-1.073v-.528h4.952c.665 0 1.386-.516 1.386-1.387v-1.074c0-1.79-1.253-3.04-3.044-3.04m-3.32 3.227c0-.824.46-1.356 1.17-1.356h2.15c.775 0 1.17.396 1.17 1.17v.605h-4.49v-.42M97.88 16.504H93.9v1.987h3.983c.605 0 .94.282 1.003.838v.136c-.02.12-.116.208-.505.265l-3.015.307c-2.377.26-2.73 1.845-2.73 2.772 0 1.91 1.526 2.767 3.043 2.767h2.675c1.493 0 2.534-1.043 2.534-2.536v-3.494c0-1.788-1.233-3.042-3.003-3.042m.47 7.204h-2.674c-1.05 0-1.17-.512-1.17-.9 0-.646.192-.815 1.037-.897l3.08-.332c.005 0 .388-.087.406-.09v1.553c0 .47-.216.668-.68.668" fill="#D8117D"/></g></svg>
