<?xml version="1.0" encoding="UTF-8"?>
<svg version="1.1" xmlns="http://www.w3.org/2000/svg" width="300" height="200" viewBox="0 0 318 69" enable-background="new 0 0 318 69">
 <g>
  <path d="M80.597,43.192h8.176v3.053h-2.072l3.389,12.124l3.275-12.124h-2.071v-3.053h8.287v3.053h-2.575l-4.956,16.436   h-4.229l-5.096-16.436h-2.856L80.597,43.192z" fill="#0b92ca"/>
  <path d="M101.206,48.037h6.58v11.899h9.156c1.932,0,2.071-0.756,2.071-1.483c0-2.408-8.624-0.28-8.624-6.076   c0-3.221,2.185-4.676,6.44-4.676c1.792,0,3.556,0.363,4.928,0.924v4.2h-3.164v-2.072c-0.476-0.141-1.344-0.309-2.268-0.309   c-1.54,0-2.688,0.309-2.688,1.597c0,1.68,2.492,1.848,4.816,2.464c2.828,0.756,3.948,1.456,3.948,4.06   c0,3.024-2.296,4.116-5.937,4.116h-15.932v-2.744h3.696v-8.876h-3.725L101.206,48.037z M102.549,43.641l2.884-2.828l2.996,2.828   l-2.996,2.772L102.549,43.641z" fill="#0b92ca"/>
  <path d="M125.649,48.037h6.58v11.619h3.696v3.024h-10.948v-3.024h3.696v-8.596h-3.725L125.649,48.037z M126.993,43.641   l2.884-2.828l2.996,2.828l-2.996,2.772L126.993,43.641z" fill="#0b92ca"/>
  <path d="M136.345,48.037h1.54c0.644,0,1.147-0.168,1.456-1.261l0.672-2.407h2.407v3.668h4.452v2.884h-4.452v5.992   c0,2.184,0.505,2.716,1.849,2.716c0.84,0,1.792-0.252,2.38-0.756l0.672,2.996c-1.204,0.812-3.164,0.951-4.004,0.951   c-3.836,0-4.452-2.464-4.452-5.403v-6.496h-2.939L136.345,48.037z" fill="#0b92ca"/>
  <path d="M160.732,54.757c-3.5-0.028-5.348-2.38-5.348-5.601c0-3.611,2.352-5.964,7.308-5.964h7.112   c4.956,0,7.084,2.633,7.084,6.301c0,5.151-3.948,6.579-7.868,6.579c-0.672,0-1.372-0.027-2.016-0.111v6.72h-3.752v-16.38h-0.98   c-2.52,0-3.611,0.756-3.611,2.828c0,1.456,0.728,2.548,2.071,2.548V54.757z M167.004,46.301v6.468   c0.672,0.112,1.092,0.168,1.848,0.168c2.24,0,4.172-0.868,4.172-3.584c0-2.016-1.372-3.052-3.695-3.052H167.004z" fill="#0b92ca"/>
  <path d="M181.816,56.52c0.14,2.856,2.212,3.444,4.731,3.444c1.652,0,3.5-0.309,4.564-0.756v2.968   c-1.512,0.672-3.612,0.868-5.208,0.868c-5.04,0-7.477-2.912-7.477-7.616c0-4.424,2.269-7.728,7.028-7.728   c4.704,0,6.272,3.191,6.272,6.495c0,0.813-0.084,1.652-0.196,2.324H181.816z M188.396,53.637c-0.028-2.24-1.568-3.164-3.164-3.164   c-1.652,0-3.248,1.008-3.36,3.164H188.396z" fill="#0b92ca"/>
  <path d="M208.555,56.52c0.141,2.856,2.212,3.444,4.732,3.444c1.652,0,3.5-0.309,4.563-0.756v2.968   c-1.512,0.672-3.611,0.868-5.207,0.868c-1.064,0-1.988-0.141-2.801-0.364h-8.708c-5.124,0-5.04-2.912-5.04-6.104v-5.656h-2.911   l0.392-2.884h1.54c0.644,0,1.147-0.168,1.456-1.261l0.672-2.407h2.408v3.668h4.452v2.884h-4.452v6.468   c0.027,2.352,1.176,2.548,3.416,2.548h3.136c-0.7-1.204-1.036-2.716-1.036-4.508c0-4.424,2.269-7.728,7.028-7.728   c4.704,0,6.271,3.191,6.271,6.495c0,0.813-0.084,1.652-0.195,2.324H208.555z M215.135,53.637c-0.027-2.24-1.567-3.164-3.164-3.164   c-1.651,0-3.248,1.008-3.359,3.164H215.135z" fill="#0b92ca"/>
  <path d="M220.932,62.681v-2.772h3.443v-8.848h-3.584l0.7-3.023h5.824l0.42,2.8c1.231-1.933,3.752-2.884,5.936-2.884   c0.477,0,0.98,0.027,1.513,0.084v6.327h-3.08v-3.191c-2.353,0.084-4.2,1.848-4.2,4.956v3.779h3.584v2.772H220.932z" fill="#0b92ca"/>
  <path d="M237.705,58.425c1.035,0.476,3.64,1.512,6.159,1.512c1.96,0,2.408-0.364,2.408-1.176   c0-2.604-8.624-0.7-8.624-6.44c0-3.191,2.353-4.619,6.468-4.619c1.792,0,3.557,0.363,4.929,0.924v4.2h-3.164v-2.072   c-0.477-0.141-1.344-0.309-2.269-0.309c-1.344,0-2.716,0.309-2.716,1.54c0,3.192,8.764,1.12,8.764,6.637   c0,3.724-3.023,4.451-6.188,4.451c-2.268,0-4.536-0.56-5.768-1.372V58.425z" fill="#0b92ca"/>
  <path d="M250.78,43.192h6.048v5.88c0.784-0.756,2.437-1.371,4.172-1.371c4.536,0,6.076,3.443,6.076,7.195   c0,4.816-2.24,8.148-7.98,8.148c-2.939,0-4.676-0.924-5.796-1.568v-15.26h-3.023L250.78,43.192z M260.383,50.696   c-1.483,0-3.023,0.925-3.556,1.933v6.775c0.952,0.448,1.876,0.589,2.716,0.589c2.548,0,4.088-1.652,4.088-4.929   C263.631,52.32,262.624,50.696,260.383,50.696z" fill="#0b92ca"/>
  <path d="M280.096,62.681l-0.421-2.352c-1.26,1.848-3.191,2.575-4.955,2.575c-2.576,0-4.536-1.512-4.536-5.348v-9.52   h3.556v8.344c0,2.52,0.672,3.248,1.764,3.248c2.017,0,3.752-1.681,3.752-4.62v-6.972h3.557v11.899h6.3v-8.876h-3.556l0.728-3.023   h5.768l0.42,2.8c1.232-1.933,3.753-2.884,5.937-2.884c0.476,0,0.979,0.027,1.512,0.084v6.327h-3.08v-3.191   c-2.352,0.084-4.199,1.848-4.199,4.956v3.808h3.584v2.744H280.096z" fill="#0b92ca"/>
  <path d="M315.74,45.097c0.308,2.268-0.784,3.612-1.736,4.648c0.729,0.84,1.092,1.876,1.092,3.08   c0,2.939-2.184,5.039-6.3,5.039c-0.952,0-1.792-0.111-2.52-0.308l-0.588,1.316c0.308-0.028,0.615-0.057,0.979-0.057   c5.964,0,10.388,1.12,10.388,5.152c0,3.136-3.275,4.956-8.035,4.956c-4.368,0-7.225-1.428-7.225-4.284   c0-1.372,0.672-2.66,2.101-3.304c-0.729-0.057-1.456-0.141-2.101-0.252l2.156-4.761c-0.952-0.896-1.456-2.1-1.456-3.499   c0-2.94,2.184-5.04,6.3-5.04c1.176,0,2.212,0.195,3.08,0.504c0.448-1.064,0.672-2.212,0.532-3.192H315.74z M309.16,66.236   c3.416,0,4.312-1.12,4.312-2.155c0-1.82-2.632-2.297-5.684-2.521c-1.708,0.084-2.66,1.204-2.66,2.269   C305.128,65.593,306.724,66.236,309.16,66.236z M311.763,52.852c0-1.344-1.092-2.324-2.968-2.324s-2.968,0.952-2.968,2.297   c0,1.344,1.092,2.323,2.968,2.323S311.763,54.196,311.763,52.852z" fill="#0b92ca"/>
 </g>
 <path d="M56.684,45.639c4.026-5.692,5.336-12.199,3.504-17.406c-2.275-6.47-8.621-9.507-13.544-10.913  c-3.257-0.933-6.11,1.269-6.983,3.937c-0.076,0.229-0.356,1.05-0.745,2.18c-1.139-0.442-2.357-0.787-3.632-1.033  c1.13-1.656,1.858-3.814,1.858-6.03c0-3.822-1.834-6.408-4.887-7.108V6.661h3.11V3.156h-3.11V0h-3.505v3.156h-3.11v3.505h3.11v2.605  c-3.053,0.7-4.886,3.286-4.886,7.108c0,2.216,0.728,4.374,1.856,6.03c-1.275,0.246-2.493,0.591-3.63,1.033  c-0.389-1.129-0.669-1.95-0.745-2.18c-0.874-2.668-3.725-4.87-6.984-3.937C9.435,18.725,3.091,21.762,0.812,28.232  C-1.02,33.438,0.29,39.945,4.316,45.639c1.685,2.383,1.768,3.779,1.768,6.039c0,6.581-0.029,6.268-0.029,6.268  c0,7.134,17.648,8.697,24.447,8.697c6.8,0,24.447-1.563,24.447-8.697c0,0-0.03,0.313-0.03-6.268  C54.918,49.417,55.001,48.022,56.684,45.639z M4.119,29.396c1.43-4.062,5.199-6.989,11.203-8.706  c1.604-0.46,2.501,1.081,2.689,1.657c0.342,1.048,4.55,13.183,4.728,13.699l3.313-1.148c-0.026-0.073-1.519-4.382-2.82-8.148  c2.131-0.846,4.642-1.294,7.269-1.294c2.628,0,5.138,0.448,7.269,1.294c-1.301,3.767-2.793,8.075-2.819,8.148l3.311,1.148  c0.179-0.516,4.384-12.652,4.73-13.699c0.188-0.576,1.084-2.114,2.686-1.657c6.005,1.717,9.775,4.646,11.203,8.706  c1.456,4.136,0.313,9.451-3.06,14.22c-2.236,3.164-2.41,5.336-2.41,8.061v1.492c-5.153-2.909-15.057-3.921-20.91-3.921  c-5.172,0-15.507,0.867-20.912,3.921v-1.492c0-2.726-0.173-4.899-2.409-8.063C3.807,38.848,2.665,33.532,4.119,29.396z   M27.367,16.373c0-3.801,2.277-3.801,3.134-3.801c0.859,0,3.133,0,3.133,3.801c0,3.223-2.198,5.577-3.133,5.577  C29.566,21.95,27.367,19.597,27.367,16.373z M10.233,57.946c0-2.323,9.85-4.519,20.268-4.519c10.418,0,20.268,2.196,20.268,4.519  c0,2.323-9.85,4.521-20.268,4.521C20.083,62.467,10.233,60.269,10.233,57.946z" fill="#f9a900"/>
 <g>
  <path d="M83.099,24.948c-1.027-0.295-1.775-0.659-2.243-1.088c-0.468-0.432-0.702-0.963-0.702-1.594   c0-0.715,0.286-1.307,0.857-1.774c0.572-0.469,1.315-0.703,2.23-0.703c0.624,0,1.18,0.12,1.668,0.361   c0.489,0.242,0.867,0.574,1.135,0.998c0.268,0.424,0.402,0.888,0.402,1.39h-1.203c0-0.551-0.174-0.984-0.524-1.299   c-0.349-0.315-0.842-0.473-1.478-0.473c-0.59,0-1.051,0.13-1.382,0.39c-0.33,0.261-0.495,0.622-0.495,1.084   c0,0.37,0.157,0.684,0.471,0.94c0.315,0.256,0.848,0.491,1.603,0.703c0.755,0.213,1.346,0.447,1.771,0.703   c0.427,0.256,0.742,0.554,0.948,0.895c0.206,0.341,0.309,0.742,0.309,1.203c0,0.736-0.286,1.326-0.86,1.768   c-0.574,0.443-1.341,0.665-2.301,0.665c-0.624,0-1.206-0.12-1.746-0.359c-0.541-0.24-0.958-0.567-1.251-0.983   c-0.293-0.416-0.439-0.888-0.439-1.416h1.203c0,0.549,0.203,0.982,0.608,1.301c0.405,0.317,0.947,0.476,1.625,0.476   c0.631,0,1.117-0.13,1.453-0.387s0.505-0.609,0.505-1.054s-0.156-0.789-0.468-1.032C84.484,25.425,83.919,25.185,83.099,24.948z" fill="#231f20"/>
  <path d="M89.386,20.614v1.634h1.26v0.892h-1.26v4.19c0,0.271,0.057,0.474,0.169,0.609s0.303,0.203,0.574,0.203   c0.133,0,0.316-0.025,0.549-0.075v0.931c-0.304,0.083-0.599,0.124-0.886,0.124c-0.515,0-0.904-0.156-1.166-0.468   c-0.262-0.312-0.393-0.755-0.393-1.328v-4.185h-1.229v-0.892h1.229v-1.634L89.386,20.614L89.386,20.614z" fill="#231f20"/>
  <path d="M92.018,28.391c0-0.2,0.058-0.366,0.177-0.499c0.119-0.133,0.297-0.2,0.534-0.2c0.237,0,0.417,0.067,0.539,0.2   c0.123,0.133,0.184,0.299,0.184,0.499c0,0.192-0.061,0.351-0.184,0.48c-0.122,0.13-0.302,0.193-0.539,0.193   c-0.237,0-0.415-0.064-0.534-0.193C92.077,28.742,92.018,28.583,92.018,28.391z" fill="#231f20"/>
  <path d="M96.733,25.441v3.555h-1.198v-9.081h3.349c0.994,0,1.772,0.254,2.336,0.761   c0.564,0.507,0.846,1.179,0.846,2.014c0,0.881-0.276,1.56-0.827,2.035c-0.551,0.476-1.34,0.714-2.367,0.714L96.733,25.441   L96.733,25.441z M96.733,24.462h2.151c0.64,0,1.13-0.151,1.472-0.453c0.34-0.302,0.512-0.739,0.512-1.309   c0-0.542-0.172-0.974-0.512-1.3c-0.341-0.325-0.809-0.494-1.403-0.506h-2.221L96.733,24.462L96.733,24.462z" fill="#231f20"/>
  <path d="M106.132,29.12c-0.915,0-1.659-0.3-2.233-0.901c-0.574-0.6-0.86-1.404-0.86-2.41v-0.212   c0-0.669,0.128-1.267,0.383-1.794c0.255-0.526,0.614-0.937,1.073-1.235c0.46-0.297,0.958-0.445,1.494-0.445   c0.877,0,1.559,0.288,2.045,0.867c0.486,0.578,0.73,1.405,0.73,2.483v0.48h-4.573c0.016,0.665,0.211,1.202,0.583,1.613   c0.372,0.409,0.846,0.614,1.42,0.614c0.407,0,0.752-0.083,1.036-0.249c0.283-0.167,0.53-0.387,0.742-0.661l0.704,0.549   C108.11,28.686,107.263,29.12,106.132,29.12z M105.988,23.071c-0.466,0-0.857,0.17-1.172,0.508   c-0.317,0.339-0.512,0.815-0.587,1.426h3.38v-0.088c-0.034-0.587-0.192-1.041-0.474-1.363   C106.853,23.232,106.471,23.071,105.988,23.071z" fill="#231f20"/>
  <path d="M111.664,20.614v1.634h1.26v0.892h-1.26v4.19c0,0.271,0.057,0.474,0.169,0.609s0.303,0.203,0.574,0.203   c0.133,0,0.316-0.025,0.549-0.075v0.931c-0.304,0.083-0.598,0.124-0.886,0.124c-0.515,0-0.904-0.156-1.166-0.468   s-0.393-0.755-0.393-1.328v-4.185h-1.229v-0.892h1.229v-1.634L111.664,20.614L111.664,20.614z" fill="#231f20"/>
  <path d="M117.072,29.12c-0.915,0-1.659-0.3-2.233-0.901c-0.574-0.6-0.86-1.404-0.86-2.41v-0.212   c0-0.669,0.128-1.267,0.383-1.794c0.255-0.526,0.614-0.937,1.073-1.235c0.46-0.297,0.958-0.445,1.494-0.445   c0.877,0,1.559,0.288,2.045,0.867c0.486,0.578,0.73,1.405,0.73,2.483v0.48h-4.573c0.016,0.665,0.211,1.202,0.583,1.613   c0.372,0.409,0.846,0.614,1.42,0.614c0.407,0,0.752-0.083,1.036-0.249c0.283-0.167,0.53-0.387,0.742-0.661l0.704,0.549   C119.05,28.686,118.202,29.12,117.072,29.12z M116.928,23.071c-0.466,0-0.857,0.17-1.172,0.508   c-0.317,0.339-0.512,0.815-0.587,1.426h3.38v-0.088c-0.034-0.587-0.192-1.041-0.474-1.363   C117.792,23.232,117.41,23.071,116.928,23.071z" fill="#231f20"/>
  <path d="M124.3,23.283c-0.174-0.029-0.364-0.044-0.567-0.044c-0.757,0-1.271,0.323-1.54,0.967v4.79h-1.154v-6.748   h1.122l0.019,0.779c0.378-0.603,0.914-0.904,1.609-0.904c0.224,0,0.395,0.029,0.512,0.088L124.3,23.283L124.3,23.283z" fill="#231f20"/>
  <path d="M129.289,27.206c0-0.312-0.118-0.554-0.353-0.726c-0.234-0.172-0.644-0.322-1.229-0.446   c-0.584-0.125-1.047-0.275-1.39-0.449s-0.596-0.382-0.761-0.624c-0.164-0.242-0.246-0.528-0.246-0.86   c0-0.553,0.234-1.021,0.702-1.403c0.468-0.382,1.066-0.574,1.794-0.574c0.765,0,1.386,0.198,1.861,0.592   c0.476,0.395,0.714,0.9,0.714,1.515h-1.16c0-0.317-0.134-0.588-0.402-0.817c-0.268-0.229-0.606-0.343-1.013-0.343   c-0.421,0-0.748,0.092-0.985,0.275c-0.237,0.182-0.356,0.422-0.356,0.717c0,0.279,0.109,0.488,0.33,0.63   c0.22,0.141,0.619,0.276,1.194,0.405c0.577,0.13,1.043,0.283,1.4,0.462c0.358,0.179,0.623,0.394,0.795,0.646   c0.172,0.251,0.259,0.557,0.259,0.92c0,0.603-0.242,1.086-0.723,1.451c-0.483,0.363-1.109,0.546-1.878,0.546   c-0.541,0-1.019-0.095-1.434-0.286c-0.416-0.192-0.742-0.458-0.976-0.802c-0.234-0.342-0.352-0.713-0.352-1.113h1.154   c0.02,0.387,0.175,0.693,0.464,0.921c0.289,0.226,0.671,0.339,1.145,0.339c0.437,0,0.786-0.088,1.05-0.265   C129.157,27.737,129.289,27.501,129.289,27.206z" fill="#231f20"/>
  <path d="M137.659,25.696c0,1.031-0.237,1.859-0.711,2.485c-0.474,0.627-1.11,0.939-1.909,0.939   c-0.853,0-1.512-0.301-1.977-0.904l-0.057,0.779h-1.06v-9.58h1.154v3.574c0.465-0.578,1.108-0.867,1.927-0.867   c0.818,0,1.462,0.31,1.93,0.93c0.467,0.619,0.702,1.467,0.702,2.545L137.659,25.696z M136.506,25.566   c0-0.786-0.152-1.392-0.455-1.821c-0.304-0.429-0.741-0.642-1.31-0.642c-0.761,0-1.308,0.354-1.64,1.06v2.919   c0.353,0.706,0.904,1.06,1.653,1.06c0.552,0,0.983-0.213,1.291-0.642C136.351,27.07,136.506,26.426,136.506,25.566z" fill="#231f20"/>
  <path d="M143.278,28.328c-0.449,0.528-1.109,0.792-1.977,0.792c-0.72,0-1.267-0.209-1.644-0.628   c-0.376-0.417-0.567-1.036-0.57-1.855v-4.391h1.154v4.359c0,1.023,0.415,1.535,1.247,1.535c0.881,0,1.467-0.328,1.759-0.985v-4.908   h1.154v6.748h-1.098L143.278,28.328z" fill="#231f20"/>
  <path d="M149.415,23.283c-0.174-0.029-0.364-0.044-0.567-0.044c-0.757,0-1.271,0.323-1.54,0.967v4.79h-1.154v-6.748   h1.122l0.019,0.779c0.378-0.603,0.914-0.904,1.609-0.904c0.224,0,0.395,0.029,0.512,0.088L149.415,23.283L149.415,23.283z" fill="#231f20"/>
  <path d="M150.082,25.566c0-1.052,0.244-1.889,0.73-2.511c0.486-0.621,1.13-0.932,1.933-0.932   c0.823,0,1.465,0.291,1.927,0.873l0.057-0.748h1.054v6.586c0,0.873-0.259,1.561-0.777,2.065c-0.518,0.504-1.213,0.755-2.086,0.755   c-0.486,0-0.963-0.104-1.428-0.312c-0.466-0.208-0.821-0.493-1.067-0.855l0.598-0.692c0.495,0.611,1.099,0.917,1.815,0.917   c0.561,0,0.999-0.158,1.312-0.474c0.315-0.317,0.472-0.761,0.472-1.335v-0.58c-0.462,0.532-1.091,0.798-1.889,0.798   c-0.79,0-1.429-0.318-1.919-0.954C150.327,27.53,150.082,26.663,150.082,25.566z M151.243,25.696c0,0.761,0.156,1.358,0.468,1.794   c0.312,0.434,0.748,0.651,1.31,0.651c0.727,0,1.262-0.33,1.603-0.992v-3.081c-0.354-0.644-0.884-0.967-1.59-0.967   c-0.561,0-1.001,0.218-1.316,0.655C151.401,24.194,151.243,24.841,151.243,25.696z" fill="#231f20"/>
  <path d="M167.851,24.748c0,0.89-0.15,1.666-0.449,2.33c-0.299,0.663-0.723,1.169-1.273,1.518   c-0.549,0.349-1.19,0.524-1.92,0.524c-0.715,0-1.349-0.175-1.902-0.527c-0.553-0.351-0.983-0.852-1.288-1.502   c-0.306-0.651-0.463-1.405-0.471-2.262v-0.655c0-0.873,0.151-1.645,0.455-2.314c0.303-0.669,0.733-1.181,1.287-1.538   c0.555-0.355,1.191-0.533,1.906-0.533c0.727,0,1.369,0.175,1.923,0.527c0.555,0.351,0.983,0.86,1.282,1.527   c0.299,0.668,0.449,1.444,0.449,2.33L167.851,24.748L167.851,24.748z M166.66,24.163c0-1.077-0.216-1.903-0.649-2.48   c-0.433-0.576-1.038-0.863-1.815-0.863c-0.757,0-1.352,0.287-1.787,0.863c-0.434,0.577-0.658,1.376-0.67,2.399v0.667   c0,1.044,0.219,1.864,0.658,2.46c0.439,0.597,1.043,0.895,1.812,0.895c0.774,0,1.372-0.282,1.796-0.846   c0.424-0.563,0.642-1.37,0.655-2.422L166.66,24.163L166.66,24.163z" fill="#231f20"/>
  <path d="M170.034,28.996V23.14h-1.067v-0.892h1.067v-0.692c0-0.723,0.193-1.283,0.58-1.678   c0.387-0.395,0.932-0.592,1.64-0.592c0.266,0,0.53,0.035,0.792,0.105l-0.062,0.931c-0.196-0.037-0.403-0.057-0.624-0.057   c-0.374,0-0.664,0.109-0.867,0.328c-0.204,0.218-0.306,0.533-0.306,0.941v0.713h1.441v0.892h-1.441v5.856L170.034,28.996   L170.034,28.996z" fill="#231f20"/>
  <path d="M174.468,28.996V23.14h-1.067v-0.892h1.067v-0.692c0-0.723,0.193-1.283,0.58-1.678   c0.387-0.395,0.932-0.592,1.64-0.592c0.265,0,0.53,0.035,0.792,0.105l-0.062,0.931c-0.196-0.037-0.403-0.057-0.624-0.057   c-0.374,0-0.664,0.109-0.867,0.328c-0.204,0.218-0.306,0.533-0.306,0.941v0.713h1.441v0.892h-1.441v5.856L174.468,28.996   L174.468,28.996z" fill="#231f20"/>
  <path d="M178.341,20.458c0-0.187,0.057-0.345,0.172-0.474c0.115-0.13,0.285-0.193,0.509-0.193s0.395,0.064,0.512,0.193   c0.116,0.13,0.174,0.286,0.174,0.474s-0.058,0.343-0.174,0.468c-0.117,0.125-0.286,0.187-0.512,0.187s-0.394-0.062-0.509-0.187   C178.399,20.801,178.341,20.645,178.341,20.458z M179.588,28.996h-1.154v-6.748h1.154V28.996z" fill="#231f20"/>
  <path d="M184.141,28.179c0.411,0,0.771-0.125,1.079-0.374c0.307-0.249,0.477-0.561,0.512-0.935h1.091   c-0.021,0.387-0.154,0.755-0.4,1.104c-0.246,0.349-0.573,0.628-0.983,0.836c-0.409,0.208-0.843,0.312-1.3,0.312   c-0.92,0-1.65-0.307-2.192-0.92c-0.543-0.614-0.814-1.452-0.814-2.517v-0.193c0-0.657,0.12-1.241,0.361-1.753   c0.241-0.512,0.588-0.909,1.038-1.192c0.452-0.283,0.984-0.424,1.6-0.424c0.756,0,1.386,0.226,1.886,0.68   c0.502,0.453,0.768,1.042,0.802,1.765h-1.091c-0.034-0.437-0.199-0.795-0.496-1.077c-0.297-0.28-0.664-0.421-1.1-0.421   c-0.587,0-1.041,0.211-1.363,0.632c-0.322,0.422-0.483,1.033-0.483,1.831v0.218c0,0.778,0.16,1.377,0.48,1.796   C183.089,27.969,183.546,28.179,184.141,28.179z" fill="#231f20"/>
  <path d="M188.127,20.458c0-0.187,0.057-0.345,0.172-0.474c0.115-0.13,0.285-0.193,0.509-0.193s0.395,0.064,0.512,0.193   c0.116,0.13,0.174,0.286,0.174,0.474s-0.058,0.343-0.174,0.468c-0.117,0.125-0.286,0.187-0.512,0.187s-0.394-0.062-0.509-0.187   C188.184,20.801,188.127,20.645,188.127,20.458z M189.374,28.996h-1.154v-6.748h1.154V28.996z" fill="#231f20"/>
  <path d="M195.387,28.996c-0.067-0.133-0.121-0.37-0.162-0.711c-0.536,0.557-1.177,0.836-1.92,0.836   c-0.665,0-1.211-0.188-1.638-0.565c-0.426-0.376-0.639-0.853-0.639-1.431c0-0.703,0.267-1.248,0.801-1.638   c0.535-0.389,1.286-0.583,2.255-0.583h1.122v-0.53c0-0.403-0.121-0.724-0.361-0.963c-0.242-0.24-0.597-0.359-1.067-0.359   c-0.411,0-0.757,0.104-1.036,0.312c-0.279,0.208-0.418,0.46-0.418,0.755h-1.16c0-0.337,0.12-0.662,0.359-0.976   c0.24-0.314,0.564-0.562,0.973-0.744c0.41-0.182,0.859-0.275,1.35-0.275c0.777,0,1.387,0.194,1.827,0.583   c0.44,0.39,0.669,0.925,0.686,1.607v3.106c0,0.619,0.078,1.112,0.237,1.478v0.099H195.387z M193.472,28.117   c0.361,0,0.704-0.094,1.029-0.281s0.558-0.431,0.704-0.73v-1.385h-0.904c-1.414,0-2.12,0.413-2.12,1.241   c0,0.361,0.12,0.644,0.361,0.848C192.783,28.016,193.093,28.117,193.472,28.117z" fill="#231f20"/>
  <path d="M199.421,28.996h-1.154v-9.58h1.154V28.996z" fill="#231f20"/>
  <path d="M211.29,26.114c-0.112,0.961-0.467,1.702-1.064,2.224c-0.596,0.521-1.389,0.782-2.378,0.782   c-1.073,0-1.932-0.385-2.579-1.154c-0.646-0.769-0.97-1.798-0.97-3.087v-0.873c0-0.844,0.151-1.586,0.452-2.226   c0.302-0.64,0.729-1.132,1.282-1.474c0.552-0.344,1.193-0.515,1.921-0.515c0.964,0,1.737,0.269,2.32,0.807   c0.582,0.539,0.921,1.284,1.016,2.236h-1.203c-0.104-0.725-0.329-1.251-0.677-1.577c-0.347-0.325-0.832-0.488-1.456-0.488   c-0.765,0-1.365,0.284-1.8,0.849c-0.434,0.566-0.651,1.371-0.651,2.415v0.88c0,0.986,0.206,1.77,0.618,2.353   c0.411,0.583,0.987,0.874,1.728,0.874c0.665,0,1.175-0.151,1.531-0.452c0.356-0.302,0.591-0.827,0.708-1.576H211.29z" fill="#231f20"/>
  <path d="M212.75,20.458c0-0.187,0.057-0.345,0.172-0.474c0.115-0.13,0.285-0.193,0.509-0.193s0.395,0.064,0.512,0.193   c0.116,0.13,0.174,0.286,0.174,0.474s-0.058,0.343-0.174,0.468c-0.117,0.125-0.286,0.187-0.512,0.187s-0.394-0.062-0.509-0.187   C212.806,20.801,212.75,20.645,212.75,20.458z M213.997,28.996h-1.154v-6.748h1.154V28.996z" fill="#231f20"/>
  <path d="M217.408,20.614v1.634h1.26v0.892h-1.26v4.19c0,0.271,0.057,0.474,0.169,0.609   c0.112,0.135,0.304,0.203,0.574,0.203c0.133,0,0.317-0.025,0.549-0.075v0.931c-0.304,0.083-0.598,0.124-0.886,0.124   c-0.515,0-0.904-0.156-1.166-0.468s-0.393-0.755-0.393-1.328v-4.185h-1.229v-0.892h1.229v-1.634L217.408,20.614L217.408,20.614z" fill="#231f20"/>
  <path d="M222.223,27.306l1.572-5.058h1.235l-2.713,7.79c-0.42,1.122-1.087,1.684-2.002,1.684l-0.218-0.019   l-0.431-0.081v-0.935l0.312,0.025c0.391,0,0.695-0.079,0.914-0.237c0.217-0.158,0.398-0.447,0.539-0.867l0.255-0.686l-2.408-6.673   h1.26L222.223,27.306z" fill="#231f20"/>
  <path d="M236.106,27.805c-0.307,0.441-0.737,0.771-1.288,0.988c-0.551,0.219-1.192,0.328-1.923,0.328   c-0.741,0-1.397-0.173-1.971-0.52c-0.574-0.348-1.017-0.841-1.332-1.482c-0.314-0.64-0.475-1.383-0.483-2.226v-0.792   c0-1.368,0.319-2.428,0.957-3.18c0.639-0.753,1.536-1.129,2.691-1.129c0.948,0,1.711,0.243,2.289,0.727   c0.578,0.484,0.932,1.171,1.06,2.061h-1.198c-0.224-1.205-0.94-1.808-2.146-1.808c-0.803,0-1.41,0.283-1.825,0.846   c-0.413,0.564-0.622,1.381-0.627,2.451v0.743c0,1.019,0.233,1.83,0.699,2.431c0.466,0.601,1.096,0.901,1.889,0.901   c0.449,0,0.842-0.05,1.179-0.15c0.337-0.099,0.616-0.267,0.836-0.504v-2.035h-2.102v-0.979h3.293L236.106,27.805L236.106,27.805z" fill="#231f20"/>
  <path d="M242.087,28.328c-0.449,0.528-1.108,0.792-1.977,0.792c-0.719,0-1.267-0.209-1.644-0.628   c-0.376-0.417-0.566-1.036-0.57-1.855v-4.391h1.154v4.359c0,1.023,0.416,1.535,1.247,1.535c0.881,0,1.467-0.328,1.759-0.985v-4.908   h1.154v6.748h-1.098L242.087,28.328z" fill="#231f20"/>
  <path d="M244.967,20.458c0-0.187,0.057-0.345,0.172-0.474c0.114-0.13,0.284-0.193,0.508-0.193s0.395,0.064,0.512,0.193   c0.117,0.13,0.174,0.286,0.174,0.474s-0.057,0.343-0.174,0.468c-0.117,0.125-0.286,0.187-0.512,0.187s-0.394-0.062-0.508-0.187   C245.025,20.801,244.967,20.645,244.967,20.458z M246.216,28.996h-1.154v-6.748h1.154V28.996z" fill="#231f20"/>
  <path d="M247.781,25.566c0-1.036,0.245-1.868,0.736-2.498c0.491-0.629,1.133-0.944,1.927-0.944   c0.79,0,1.416,0.27,1.878,0.811v-3.517h1.154v9.58h-1.06l-0.057-0.723c-0.462,0.566-1.104,0.848-1.927,0.848   c-0.781,0-1.419-0.32-1.912-0.961c-0.492-0.64-0.739-1.476-0.739-2.507L247.781,25.566L247.781,25.566z M248.935,25.696   c0,0.765,0.158,1.364,0.474,1.796s0.753,0.649,1.31,0.649c0.732,0,1.266-0.328,1.603-0.985v-3.099   c-0.345-0.636-0.875-0.954-1.59-0.954c-0.566,0-1.006,0.218-1.322,0.655S248.935,24.841,248.935,25.696z" fill="#231f20"/>
  <path d="M258.065,29.12c-0.915,0-1.659-0.3-2.233-0.901c-0.574-0.6-0.86-1.404-0.86-2.41v-0.212   c0-0.669,0.128-1.267,0.384-1.794c0.255-0.526,0.613-0.937,1.073-1.235c0.459-0.297,0.957-0.445,1.494-0.445   c0.878,0,1.559,0.288,2.045,0.867c0.486,0.578,0.73,1.405,0.73,2.483v0.48h-4.572c0.017,0.665,0.211,1.202,0.583,1.613   c0.372,0.409,0.846,0.614,1.42,0.614c0.407,0,0.753-0.083,1.036-0.249c0.283-0.166,0.53-0.387,0.742-0.661l0.704,0.549   C260.044,28.686,259.196,29.12,258.065,29.12z M257.922,23.071c-0.466,0-0.856,0.17-1.172,0.508   c-0.317,0.339-0.512,0.815-0.587,1.426h3.38v-0.088c-0.033-0.587-0.192-1.041-0.474-1.363   C258.787,23.232,258.404,23.071,257.922,23.071z" fill="#231f20"/>
 </g>
</svg>
