<?xml version="1.0" encoding="utf-8"?>
<!-- Generator: Adobe Illustrator 21.0.0, SVG Export Plug-In . SVG Version: 6.00 Build 0)  -->
<svg version="1.1" id="Слой_1" xmlns="http://www.w3.org/2000/svg" xmlns:xlink="http://www.w3.org/1999/xlink" x="0px" y="0px"
	 viewBox="0 0 289.8 32" style="enable-background:new 0 0 289.8 32;" xml:space="preserve">
<style type="text/css">
	.st0{fill:#FFA300;}
</style>
<g>
	<path class="st0" d="M89.4,17C89.4,17,89.4,17,89.4,17c-0.7-0.8-0.3-1.8,0-2.4c0.9-1,1.9-2.7,1.9-5.3c0-4.9-4.2-8.5-9.9-8.5
		c-4.8,0-8.6,3-8.8,3.1c-0.8,0.6-1,1.8-0.3,2.7c0.6,0.8,1.8,1,2.7,0.3c0,0,3-2.3,6.4-2.3c3,0,6.1,1.4,6.1,4.7
		c0,1.3-0.5,2.3-0.9,2.9c-0.2,0.3-0.4,0.7-0.4,1.1v5.3c0,0.5,0.2,1.1,0.6,1.4c0.1,0.1,0.3,0.2,0.5,0.3c0,0,1.4,0.6,1,3.3
		c-0.6,3.5-5.7,3.8-7.9,3.8c-4,0-5.6-1.6-5.7-1.7c-0.7-0.8-1.9-0.8-2.7-0.1c-0.8,0.7-0.9,1.9-0.2,2.7c0.3,0.3,2.8,3,8.5,3
		c6.7,0,11-2.6,11.7-7C92.8,20.1,91,17.9,89.4,17z"/>
	<path class="st0" d="M211.2,27.7l-13.8-11l3.3-3.3c0.2-0.2,0.2-0.4,0-0.6l-2.9-2.9c-0.2-0.2-0.4-0.2-0.6,0l-2.7,2.7v-9c0-0.9-0.6-1.8-1.5-1.9
		c-1.2-0.2-2.3,0.7-2.3,1.9v25.7c0,0.9,0.6,1.8,1.5,1.9c1.2,0.2,2.3-0.7,2.3-1.9v-9.9l14.4,11.4c0.3,0.3,0.8,0.4,1.2,0.4
		c0.7,0,1.3-0.3,1.7-1C212.2,29.3,211.9,28.3,211.2,27.7z"/>
	<path class="st0" d="M248.6,17.8c0,0.2,0.2,0.4,0.4,0.4h3c0.2,0,0.4-0.2,0.4-0.4V4c0-0.8-0.4-1.6-1.1-2.1c-1-0.6-2.2-0.3-2.9,0.6l-16.2,21.7
		V3.6c0-0.9-0.6-1.8-1.5-1.9c-1.2-0.2-2.3,0.7-2.3,1.9v25.3c0,0.8,0.4,1.6,1.1,2.1c1,0.6,2.2,0.3,2.9-0.6l16.2-21.7V17.8z"/>
	<path class="st0" d="M128.5,21c0,0.2,0.2,0.4,0.4,0.4h3c0.2,0,0.4-0.2,0.4-0.4V3.7c0-1.1-0.9-2.1-2.1-2.1h-14.6c-1.1,0-1.9,0.8-2.1,1.8
		l-2.1,18.2c-0.3,2.2-1.5,4.2-3.5,5.3l-1,0.6c-0.9,0.5-1.3,1.6-0.8,2.5c0.3,0.7,1,1.1,1.7,1.1c0.3,0,0.7-0.1,1-0.3l1.1-0.6
		c3-1.7,4.9-4.7,5.3-8.1l1.9-16.7h11.4V21z"/>
	<path class="st0" d="M172.7,1.9c-1-0.6-2.2-0.3-2.9,0.6l-16.2,21.7v-4.2c0-0.2-0.2-0.4-0.4-0.4h-3c-0.2,0-0.4,0.2-0.4,0.4l0,8.7
		c0,0.8,0.4,1.6,1.1,2.1c1,0.6,2.2,0.3,2.9-0.6l16.2-21.7v20.7c0,0.9,0.6,1.8,1.5,1.9c1.2,0.2,2.3-0.7,2.3-1.9V4
		C173.8,3.1,173.5,2.3,172.7,1.9z"/>
	<path class="st0" d="M7.9,13.8h5c0.2,0,0.4,0,0.5,0c0.2,0,0.3-0.1,0.3-0.1l0.4-0.7c0,0,0.1-0.2-0.1-0.2c-0.2,0-0.6-0.1-1.2-0.1H8
		c-1.2,0-2.2,0.8-2.5,1.9c-0.3,1.6,0.9,3,2.4,3h3.2c0.1,0,0.3-0.1,0.4-0.2l0.4-0.7c0,0,0.1-0.2-0.1-0.2c-0.2,0-3.8,0-3.8,0
		c-0.7,0-1.3-0.5-1.4-1.1C6.5,14.5,7.1,13.8,7.9,13.8z"/>
	<path class="st0" d="M18.9,16.8l-1.9,3c-0.1,0.1-0.1,0.2,0,0.3c0.1,0.5,0.2,1,0.2,1.5c0,1.8-0.5,3.1-1.4,4c-1.7,1.7-4.5,1.6-4.5,1.6l-7.4,0
		V5.4h14c0.9,0,1.8-0.6,1.9-1.5c0.2-1.2-0.7-2.3-1.9-2.3H3.7C1.7,1.6,0,3.3,0,5.3v22.1c0,2,1.7,3.7,3.7,3.7h7.4c0,0,0.1,0,0.1,0
		c0.8,0,4.5-0.1,7.1-2.7c1.7-1.7,2.6-3.9,2.6-6.7c0-2.1-0.6-3.7-1.3-4.9C19.4,16.6,19.1,16.6,18.9,16.8z"/>
	<path class="st0" d="M287.6,27.3h-14.1v-9.7h0v-3.8h0V5.4h14.1c1,0,1.9-0.8,1.9-1.9s-0.8-1.9-1.9-1.9h-14.1c-2,0-3.7,1.7-3.7,3.7v11v11
		c0,2,1.7,3.7,3.7,3.7h14.1c1,0,1.9-0.8,1.9-1.9C289.5,28.2,288.7,27.3,287.6,27.3z"/>
	<path class="st0" d="M287.3,13.3h-6.9c-0.2,0-0.4,0.2-0.4,0.4V14c0,0.2,0.2,0.4,0.4,0.4h6.9c0.7,0,1.3,0.5,1.4,1.1c0.1,0.8-0.5,1.6-1.3,1.6h-7
		c-0.2,0-0.4,0.2-0.4,0.4v0.3c0,0.2,0.2,0.4,0.4,0.4h7c1.5,0,2.7-1.4,2.4-3C289.5,14.1,288.5,13.3,287.3,13.3z"/>
	<path class="st0" d="M275.6,13c-0.2,0-0.4,0.2-0.4,0.4v4.8c0,0.2,0.2,0.4,0.4,0.4h2.3c0.2,0,0.4-0.2,0.4-0.4v-4.8c0-0.2-0.2-0.4-0.4-0.4H275.6
		z"/>
	<path class="st0" d="M54.1,13.3h-6.9c-0.2,0-0.4,0.2-0.4,0.4V14c0,0.2,0.2,0.4,0.4,0.4h6.9c0.7,0,1.3,0.5,1.4,1.1c0.1,0.8-0.5,1.6-1.3,1.6h-7
		c-0.2,0-0.4,0.2-0.4,0.4v0.3c0,0.2,0.2,0.4,0.4,0.4h7c1.5,0,2.7-1.4,2.4-3C56.3,14.1,55.2,13.3,54.1,13.3z"/>
	<path class="st0" d="M42.4,13c-0.2,0-0.4,0.2-0.4,0.4v4.8c0,0.2,0.2,0.4,0.4,0.4h2.3c0.2,0,0.4-0.2,0.4-0.4v-4.8c0-0.2-0.2-0.4-0.4-0.4H42.4z"
		/>
	<path class="st0" d="M252.6,24.6h-0.3c-0.2,0-0.4,0.2-0.4,0.4v4.2c0,0.7-0.5,1.3-1.1,1.4c-0.8,0.1-1.6-0.5-1.6-1.3V25c0-0.2-0.2-0.4-0.4-0.4
		h-0.3c-0.2,0-0.4,0.2-0.4,0.4v4.2c0,1.5,1.4,2.7,3,2.4c1.1-0.2,1.9-1.3,1.9-2.5V25C253,24.8,252.8,24.6,252.6,24.6z"/>
	<path class="st0" d="M252.9,19.8h-4.8c-0.2,0-0.4,0.2-0.4,0.4v2.3c0,0.2,0.2,0.4,0.4,0.4h4.8c0.2,0,0.4-0.2,0.4-0.4v-2.3
		C253.3,20,253.2,19.8,252.9,19.8z"/>
	<path class="st0" d="M202.5,5.7c0.2,0.2,0.4,0.2,0.6,0l3-3c0.5-0.5,1.2-0.6,1.8-0.2c0.7,0.5,0.8,1.5,0.2,2.1l-3,3c-0.2,0.2-0.2,0.4,0,0.6
		l0.2,0.2c0.2,0.2,0.4,0.2,0.6,0l3-3c1.1-1.1,0.9-2.9-0.4-3.8c-1-0.6-2.3-0.5-3.1,0.4l-3,3c-0.2,0.2-0.2,0.4,0,0.6L202.5,5.7z"/>
	<path class="st0" d="M202,11.9c0.2,0.2,0.4,0.2,0.6,0l1.6-1.6c0.2-0.2,0.2-0.4,0-0.6l-3.4-3.4c-0.2-0.2-0.4-0.2-0.6,0L198.7,8
		c-0.2,0.2-0.2,0.4,0,0.6L202,11.9z"/>
	<path class="st0" d="M154.5,17.7v-1.4c0-0.2-0.2-0.3-0.3-0.3h-0.6V12c0-0.2-0.2-0.4-0.4-0.4h-0.9v-1.1c1.1-0.2,1.9-1.3,1.9-2.5V6.7V3.8V2.4
		c0-1.5-1.4-2.7-3-2.4c-1.1,0.2-1.9,1.3-1.9,2.5v1.3v2.9V8c0,1.2,0.8,2.1,1.9,2.4v1.1h-0.9c-0.2,0-0.4,0.2-0.4,0.4v3.9h-0.6
		c-0.2,0-0.3,0.2-0.3,0.3v1.4c0,0.2,0.2,0.3,0.3,0.3h4.9C154.4,18,154.5,17.8,154.5,17.7z M150.4,8V6.7V3.8V2.5
		c0-0.7,0.5-1.3,1.1-1.4c0.8-0.1,1.6,0.5,1.6,1.3v1.4v2.9V8c0,0.7-0.5,1.3-1.1,1.4C151.1,9.5,150.4,8.9,150.4,8z"/>
	<path class="st0" d="M132.9,23.1H128c-0.2,0-0.3,0.2-0.3,0.3v1.4c0,0.2,0.2,0.3,0.3,0.3h0.6v3.9c0,0.2,0.2,0.4,0.4,0.4h0.9v1.2
		c0,0.2,0.2,0.4,0.4,0.4h0.3c0.2,0,0.4-0.2,0.4-0.4v-1.2h0.9c0.2,0,0.4-0.2,0.4-0.4v-3.9h0.6c0.2,0,0.3-0.2,0.3-0.3v-1.4
		C133.2,23.2,133.1,23.1,132.9,23.1z"/>
	<path class="st0" d="M76.5,14.4h3c0.2,0,0.4-0.2,0.4-0.4v-0.3c0-0.2-0.2-0.4-0.4-0.4h-3c-1.5,0-2.7,1.4-2.4,3c0.2,1.1,1.3,1.9,2.5,1.9h3
		c0.2,0,0.4-0.2,0.4-0.4v-0.3c0-0.2-0.2-0.4-0.4-0.4h-3c-0.7,0-1.3-0.5-1.4-1.1C75,15.1,75.7,14.4,76.5,14.4z"/>
	<path class="st0" d="M84.3,18.5c0.2,0,0.4-0.2,0.4-0.4v-4.8c0-0.2-0.2-0.4-0.4-0.4H82c-0.2,0-0.4,0.2-0.4,0.4v4.8c0,0.2,0.2,0.4,0.4,0.4H84.3z
		"/>
	<path class="st0" d="M55.9,28.7h-1.2v-0.8c0-0.2-0.2-0.4-0.4-0.4h-3.9v-0.7c0-0.2-0.2-0.3-0.3-0.3h-1.4c-0.2,0-0.3,0.2-0.3,0.3v4.9
		c0,0.2,0.2,0.3,0.3,0.3H50c0.2,0,0.3-0.2,0.3-0.3V31h3.9c0.2,0,0.4-0.2,0.4-0.4v-0.8h1.2c0.2,0,0.4-0.2,0.4-0.4v-0.3
		C56.3,28.9,56.1,28.7,55.9,28.7z"/>
	<path class="st0" d="M46.1,27.3h-5.8v-9.7h0v-3.8h0V5.4h14c0.9,0,1.8-0.6,1.9-1.5c0.2-1.2-0.7-2.3-1.9-2.3H40.2c-2.1,0-3.7,1.7-3.7,3.7v11v11
		c0,2.1,1.7,3.7,3.7,3.7h5.9c0.2,0,0.4-0.2,0.4-0.4v-3C46.5,27.5,46.4,27.3,46.1,27.3z"/>
	<path class="st0" d="M13.2,17.8l1.9,1.2c0.2,0.1,0.4,0.1,0.6-0.1l2.6-4c0.1-0.2,0.1-0.4-0.1-0.6l-1.9-1.2c-0.2-0.1-0.4-0.1-0.6,0.1l-2.6,4
		C13,17.4,13.1,17.6,13.2,17.8z"/>
</g>
</svg>
