<?xml version="1.0" encoding="utf-8"?>
<!-- Generator: Adobe Illustrator 22.1.0, SVG Export Plug-In . SVG Version: 6.00 Build 0)  -->
<svg version="1.1" id="Слой_1" xmlns="http://www.w3.org/2000/svg" xmlns:xlink="http://www.w3.org/1999/xlink" x="0px" y="0px"
	 viewBox="0 0 289.8 155.9" style="enable-background:new 0 0 289.8 155.9;" xml:space="preserve">
<style type="text/css">
	.st0{fill:#FFFFFF;}
</style>
<g>
	<path class="st0" d="M89.4,79.6C89.4,79.6,89.4,79.6,89.4,79.6c-0.7-0.8-0.3-1.8,0-2.4c0.9-1,1.9-2.7,1.9-5.3
		c0-4.9-4.2-8.5-9.9-8.5c-4.8,0-8.6,3-8.8,3.1c-0.8,0.6-1,1.8-0.3,2.7c0.6,0.8,1.8,1,2.7,0.3c0,0,3-2.3,6.4-2.3c3,0,6.1,1.4,6.1,4.7
		c0,1.3-0.5,2.3-0.9,2.9c-0.2,0.3-0.4,0.7-0.4,1.1v5.3c0,0.5,0.2,1.1,0.6,1.4c0.1,0.1,0.3,0.2,0.5,0.3c0,0,1.4,0.6,1,3.3
		c-0.6,3.5-5.7,3.8-7.9,3.8c-4,0-5.6-1.6-5.7-1.7c-0.7-0.8-1.9-0.8-2.7-0.1c-0.8,0.7-0.9,1.9-0.2,2.7c0.3,0.3,2.8,3,8.5,3
		c6.7,0,11-2.6,11.7-7C92.8,82.7,91,80.5,89.4,79.6z"/>
	<path class="st0" d="M211.2,90.3l-13.8-11l3.3-3.3c0.2-0.2,0.2-0.4,0-0.6l-2.9-2.9c-0.2-0.2-0.4-0.2-0.6,0l-2.7,2.7v-9
		c0-0.9-0.6-1.8-1.5-1.9c-1.2-0.2-2.3,0.7-2.3,1.9v25.7c0,0.9,0.6,1.8,1.5,1.9c1.2,0.2,2.3-0.7,2.3-1.9v-9.9l14.4,11.4
		c0.3,0.3,0.8,0.4,1.2,0.4c0.7,0,1.3-0.3,1.7-1C212.2,92,211.9,90.9,211.2,90.3z"/>
	<path class="st0" d="M248.6,80.4c0,0.2,0.2,0.4,0.4,0.4h3c0.2,0,0.4-0.2,0.4-0.4V66.6c0-0.8-0.4-1.6-1.1-2.1
		c-1-0.6-2.2-0.3-2.9,0.6l-16.2,21.7V66.2c0-0.9-0.6-1.8-1.5-1.9c-1.2-0.2-2.3,0.7-2.3,1.9v25.3c0,0.8,0.4,1.6,1.1,2.1
		c1,0.6,2.2,0.3,2.9-0.6l16.2-21.7V80.4z"/>
	<path class="st0" d="M128.5,83.6c0,0.2,0.2,0.4,0.4,0.4h3c0.2,0,0.4-0.2,0.4-0.4V66.3c0-1.1-0.9-2.1-2.1-2.1h-14.6
		c-1.1,0-1.9,0.8-2.1,1.8l-2.1,18.2c-0.3,2.2-1.5,4.2-3.5,5.3l-1,0.6c-0.9,0.5-1.3,1.6-0.8,2.5c0.3,0.7,1,1.1,1.7,1.1
		c0.3,0,0.7-0.1,1-0.3l1.1-0.6c3-1.7,4.9-4.7,5.3-8.1l1.9-16.7h11.4V83.6z"/>
	<path class="st0" d="M172.7,64.6c-1-0.6-2.2-0.3-2.9,0.6l-16.2,21.7v-4.2c0-0.2-0.2-0.4-0.4-0.4h-3c-0.2,0-0.4,0.2-0.4,0.4l0,8.7
		c0,0.8,0.4,1.6,1.1,2.1c1,0.6,2.2,0.3,2.9-0.6l16.2-21.7v20.7c0,0.9,0.6,1.8,1.5,1.9c1.2,0.2,2.3-0.7,2.3-1.9V66.6
		C173.8,65.8,173.5,65,172.7,64.6z"/>
	<path class="st0" d="M7.9,76.4h5c0.2,0,0.4,0,0.5,0c0.2,0,0.3-0.1,0.3-0.1l0.4-0.7c0,0,0.1-0.2-0.1-0.2c-0.2,0-0.6-0.1-1.2-0.1H8
		c-1.2,0-2.2,0.8-2.5,1.9c-0.3,1.6,0.9,3,2.4,3h3.2c0.1,0,0.3-0.1,0.4-0.2l0.4-0.7c0,0,0.1-0.2-0.1-0.2c-0.2,0-3.8,0-3.8,0
		c-0.7,0-1.3-0.5-1.4-1.1C6.5,77.1,7.1,76.4,7.9,76.4z"/>
	<path class="st0" d="M18.9,79.5l-1.9,3c-0.1,0.1-0.1,0.2,0,0.3c0.1,0.5,0.2,1,0.2,1.5c0,1.8-0.5,3.1-1.4,4C14,90,11.2,90,11.2,90
		l-7.4,0V68h14c0.9,0,1.8-0.6,1.9-1.5c0.2-1.2-0.7-2.3-1.9-2.3H3.7C1.7,64.2,0,65.9,0,68v22.1c0,2,1.7,3.7,3.7,3.7h7.4
		c0,0,0.1,0,0.1,0c0.8,0,4.5-0.1,7.1-2.7c1.7-1.7,2.6-3.9,2.6-6.7c0-2.1-0.6-3.7-1.3-4.9C19.4,79.2,19.1,79.2,18.9,79.5z"/>
	<path class="st0" d="M287.6,90h-14.1v-9.7h0v-3.8h0V68h14.1c1,0,1.9-0.8,1.9-1.9c0-1-0.8-1.9-1.9-1.9h-14.1c-2,0-3.7,1.7-3.7,3.7
		v11v11c0,2,1.7,3.7,3.7,3.7h14.1c1,0,1.9-0.8,1.9-1.9C289.5,90.8,288.7,90,287.6,90z"/>
	<path class="st0" d="M287.3,76h-6.9c-0.2,0-0.4,0.2-0.4,0.4v0.3c0,0.2,0.2,0.4,0.4,0.4h6.9c0.7,0,1.3,0.5,1.4,1.1
		c0.1,0.8-0.5,1.6-1.3,1.6h-7c-0.2,0-0.4,0.2-0.4,0.4v0.3c0,0.2,0.2,0.4,0.4,0.4h7c1.5,0,2.7-1.4,2.4-3
		C289.5,76.8,288.5,76,287.3,76z"/>
	<path class="st0" d="M275.6,75.6c-0.2,0-0.4,0.2-0.4,0.4v4.8c0,0.2,0.2,0.4,0.4,0.4h2.3c0.2,0,0.4-0.2,0.4-0.4V76
		c0-0.2-0.2-0.4-0.4-0.4H275.6z"/>
	<path class="st0" d="M54.1,76h-6.9c-0.2,0-0.4,0.2-0.4,0.4v0.3c0,0.2,0.2,0.4,0.4,0.4h6.9c0.7,0,1.3,0.5,1.4,1.1
		c0.1,0.8-0.5,1.6-1.3,1.6h-7c-0.2,0-0.4,0.2-0.4,0.4v0.3c0,0.2,0.2,0.4,0.4,0.4h7c1.5,0,2.7-1.4,2.4-3C56.3,76.8,55.2,76,54.1,76z"
		/>
	<path class="st0" d="M42.4,75.6c-0.2,0-0.4,0.2-0.4,0.4v4.8c0,0.2,0.2,0.4,0.4,0.4h2.3c0.2,0,0.4-0.2,0.4-0.4V76
		c0-0.2-0.2-0.4-0.4-0.4H42.4z"/>
	<path class="st0" d="M252.6,87.2h-0.3c-0.2,0-0.4,0.2-0.4,0.4v4.2c0,0.7-0.5,1.3-1.1,1.4c-0.8,0.1-1.6-0.5-1.6-1.3v-4.2
		c0-0.2-0.2-0.4-0.4-0.4h-0.3c-0.2,0-0.4,0.2-0.4,0.4v4.2c0,1.5,1.4,2.7,3,2.4c1.1-0.2,1.9-1.3,1.9-2.5v-4.2
		C253,87.4,252.8,87.2,252.6,87.2z"/>
	<path class="st0" d="M252.9,82.5h-4.8c-0.2,0-0.4,0.2-0.4,0.4v2.3c0,0.2,0.2,0.4,0.4,0.4h4.8c0.2,0,0.4-0.2,0.4-0.4v-2.3
		C253.3,82.7,253.2,82.5,252.9,82.5z"/>
	<path class="st0" d="M202.5,68.3c0.2,0.2,0.4,0.2,0.6,0l3-3c0.5-0.5,1.2-0.6,1.8-0.2c0.7,0.5,0.8,1.5,0.2,2.1l-3,3
		c-0.2,0.2-0.2,0.4,0,0.6l0.2,0.2c0.2,0.2,0.4,0.2,0.6,0l3-3c1.1-1.1,0.9-2.9-0.4-3.8c-1-0.6-2.3-0.5-3.1,0.4l-3,3
		c-0.2,0.2-0.2,0.4,0,0.6L202.5,68.3z"/>
	<path class="st0" d="M202,74.6c0.2,0.2,0.4,0.2,0.6,0l1.6-1.6c0.2-0.2,0.2-0.4,0-0.6l-3.4-3.4c-0.2-0.2-0.4-0.2-0.6,0l-1.6,1.6
		c-0.2,0.2-0.2,0.4,0,0.6L202,74.6z"/>
	<path class="st0" d="M154.5,80.3v-1.4c0-0.2-0.2-0.3-0.3-0.3h-0.6v-3.9c0-0.2-0.2-0.4-0.4-0.4h-0.9v-1.1c1.1-0.2,1.9-1.3,1.9-2.5
		v-1.3v-2.9v-1.4c0-1.5-1.4-2.7-3-2.4c-1.1,0.2-1.9,1.3-1.9,2.5v1.3v2.9v1.4c0,1.2,0.8,2.1,1.9,2.4v1.1h-0.9c-0.2,0-0.4,0.2-0.4,0.4
		v3.9h-0.6c-0.2,0-0.3,0.2-0.3,0.3v1.4c0,0.2,0.2,0.3,0.3,0.3h4.9C154.4,80.6,154.5,80.5,154.5,80.3z M150.4,70.7v-1.4v-2.9v-1.3
		c0-0.7,0.5-1.3,1.1-1.4c0.8-0.1,1.6,0.5,1.6,1.3v1.4v2.9v1.3c0,0.7-0.5,1.3-1.1,1.4C151.1,72.2,150.4,71.5,150.4,70.7z"/>
	<path class="st0" d="M132.9,85.7H128c-0.2,0-0.3,0.2-0.3,0.3v1.4c0,0.2,0.2,0.3,0.3,0.3h0.6v3.9c0,0.2,0.2,0.4,0.4,0.4h0.9v1.2
		c0,0.2,0.2,0.4,0.4,0.4h0.3c0.2,0,0.4-0.2,0.4-0.4v-1.2h0.9c0.2,0,0.4-0.2,0.4-0.4v-3.9h0.6c0.2,0,0.3-0.2,0.3-0.3V86
		C133.2,85.9,133.1,85.7,132.9,85.7z"/>
	<path class="st0" d="M76.5,77h3c0.2,0,0.4-0.2,0.4-0.4v-0.3c0-0.2-0.2-0.4-0.4-0.4h-3c-1.5,0-2.7,1.4-2.4,3
		c0.2,1.1,1.3,1.9,2.5,1.9h3c0.2,0,0.4-0.2,0.4-0.4v-0.3c0-0.2-0.2-0.4-0.4-0.4h-3c-0.7,0-1.3-0.5-1.4-1.1C75,77.8,75.7,77,76.5,77z
		"/>
	<path class="st0" d="M84.3,81.2c0.2,0,0.4-0.2,0.4-0.4V76c0-0.2-0.2-0.4-0.4-0.4H82c-0.2,0-0.4,0.2-0.4,0.4v4.8
		c0,0.2,0.2,0.4,0.4,0.4H84.3z"/>
	<path class="st0" d="M55.9,91.3h-1.2v-0.8c0-0.2-0.2-0.4-0.4-0.4h-3.9v-0.7c0-0.2-0.2-0.3-0.3-0.3h-1.4c-0.2,0-0.3,0.2-0.3,0.3v4.9
		c0,0.2,0.2,0.3,0.3,0.3H50c0.2,0,0.3-0.2,0.3-0.3v-0.7h3.9c0.2,0,0.4-0.2,0.4-0.4v-0.8h1.2c0.2,0,0.4-0.2,0.4-0.4v-0.3
		C56.3,91.5,56.1,91.3,55.9,91.3z"/>
	<path class="st0" d="M46.1,90h-5.8v-9.7h0v-3.8h0V68h14c0.9,0,1.8-0.6,1.9-1.5c0.2-1.2-0.7-2.3-1.9-2.3H40.2
		c-2.1,0-3.7,1.7-3.7,3.7v11v11c0,2.1,1.7,3.7,3.7,3.7h5.9c0.2,0,0.4-0.2,0.4-0.4v-3C46.5,90.2,46.4,90,46.1,90z"/>
	<path class="st0" d="M13.2,80.4l1.9,1.2c0.2,0.1,0.4,0.1,0.6-0.1l2.6-4c0.1-0.2,0.1-0.4-0.1-0.6l-1.9-1.2c-0.2-0.1-0.4-0.1-0.6,0.1
		l-2.6,4C13,80,13.1,80.3,13.2,80.4z"/>
</g>
</svg>
