<?xml version="1.0" encoding="utf-8"?>
<!-- Generator: Adobe Illustrator 21.0.0, SVG Export Plug-In . SVG Version: 6.00 Build 0)  -->
<svg version="1.1" id="Слой_1" xmlns="http://www.w3.org/2000/svg" xmlns:xlink="http://www.w3.org/1999/xlink" x="0px" y="0px"
	 viewBox="0 0 289.8 32.1" style="enable-background:new 0 0 289.8 32.1;" xml:space="preserve">
<style type="text/css">
	.st0{fill:#FFA300;}
</style>
<g>
	<path class="st0" d="M15.3,13.3h-4.7c-0.2,0-0.4,0.2-0.4,0.4V14c0,0.2,0.2,0.4,0.4,0.4h4.7c0.7,0,1.3,0.5,1.4,1.1c0.1,0.8-0.5,1.6-1.3,1.6
		h-4.8c-0.2,0-0.4,0.2-0.4,0.4v0.3c0,0.2,0.2,0.4,0.4,0.4h4.8c1.5,0,2.7-1.4,2.4-2.9C17.5,14.1,16.4,13.3,15.3,13.3z"/>
	<path class="st0" d="M8.1,13H5.8c-0.2,0-0.4,0.2-0.4,0.4v4.7c0,0.2,0.2,0.4,0.4,0.4h2.3c0.2,0,0.4-0.2,0.4-0.4v-4.7C8.5,13.2,8.3,13,8.1,13z"
		/>
	<path class="st0" d="M212.9,27.2h-14v-9.6h0v-3.8h0V5.4h14c1,0,1.9-0.8,1.9-1.9s-0.8-1.9-1.9-1.9h-14.1c-2,0-3.7,1.7-3.7,3.7v11v11
		c0,2,1.7,3.7,3.7,3.7h14.1c1,0,1.9-0.8,1.9-1.9C214.7,28.1,213.9,27.2,212.9,27.2z"/>
	<path class="st0" d="M212.6,13.3h-6.9c-0.2,0-0.4,0.2-0.4,0.4V14c0,0.2,0.2,0.4,0.4,0.4h6.9c0.7,0,1.3,0.5,1.4,1.1c0.1,0.8-0.5,1.6-1.3,1.6h-7
		c-0.2,0-0.4,0.2-0.4,0.4v0.3c0,0.2,0.2,0.4,0.4,0.4h7c1.5,0,2.7-1.4,2.4-2.9C214.8,14.1,213.7,13.3,212.6,13.3z"/>
	<path class="st0" d="M200.9,13c-0.2,0-0.4,0.2-0.4,0.4v4.7c0,0.2,0.2,0.4,0.4,0.4h2.3c0.2,0,0.4-0.2,0.4-0.4v-4.7c0-0.2-0.2-0.4-0.4-0.4H200.9
		z"/>
	<path class="st0" d="M139,3.5c0-1-0.8-1.9-1.9-1.9h-14.1c-2,0-3.7,1.7-3.7,3.7v11v11c0,2,1.7,3.7,3.7,3.7h14.1c1,0,1.9-0.8,1.9-1.9
		c0-1-0.8-1.9-1.9-1.9h-14v-9.6h0v-3.8h0V5.4h14C138.2,5.4,139,4.6,139,3.5z"/>
	<path class="st0" d="M178.3,28.6h-1.2v-0.8c0-0.2-0.2-0.4-0.4-0.4h-3.9v-0.7c0-0.2-0.2-0.3-0.3-0.3h-1.4c-0.2,0-0.3,0.2-0.3,0.3v4.9
		c0,0.2,0.2,0.3,0.3,0.3h1.4c0.2,0,0.3-0.2,0.3-0.3v-0.7h3.9c0.2,0,0.4-0.2,0.4-0.4v-0.8h1.2c0.2,0,0.4-0.2,0.4-0.4V29
		C178.7,28.8,178.6,28.6,178.3,28.6z"/>
	<path class="st0" d="M168.7,27.2h-5.8l0-25.2c0-0.9-0.6-1.7-1.5-1.9c-1.2-0.2-2.3,0.7-2.3,1.9v25.4c0,2,1.7,3.7,3.7,3.7h5.9
		c0.2,0,0.4-0.2,0.4-0.4v-3C169.1,27.4,168.9,27.2,168.7,27.2z"/>
	<path class="st0" d="M17.8,1.7H3.7C1.7,1.7,0,3.3,0,5.4v23.8c0,1.2,1.1,2.1,2.3,1.9c0.9-0.2,1.5-1,1.5-1.9V5.4l13.9,0c0.9,0,1.7-0.6,1.9-1.5
		C19.8,2.7,18.9,1.7,17.8,1.7z"/>
	<path class="st0" d="M126.6,13h-1.4c-0.2,0-0.3,0.2-0.3,0.3v4.9c0,0.2,0.2,0.3,0.3,0.3h1.4c0.2,0,0.3-0.2,0.3-0.3v-0.6h3.9
		c0.2,0,0.4-0.2,0.4-0.4v-0.9h1.2c0.2,0,0.4-0.2,0.4-0.4v-0.3c0-0.2-0.2-0.4-0.4-0.4h-1.2v-0.9c0-0.2-0.2-0.4-0.4-0.4h-3.9v-0.6
		C126.9,13.1,126.8,13,126.6,13z"/>
	<path class="st0" d="M49.8,3.6c-0.5-1.5-1.9-2.4-3.5-2.4c-1.6,0-2.9,0.9-3.5,2.4l-9.3,25.2c-0.4,1,0.1,2.1,1.1,2.4c1,0.4,2.1-0.1,2.4-1.1
		l2.5-6.9l0.3,0.1c0.2,0.1,0.5,0,0.5-0.2l1.8-4.4c0.1-0.2,0-0.5-0.2-0.5L41.6,18l4.8-12.9L51.2,18l-0.4,0.2
		c-0.2,0.1-0.3,0.3-0.2,0.5l1.8,4.4c0.1,0.2,0.3,0.3,0.5,0.2l0.3-0.1l2.5,6.9c0.3,0.8,1,1.2,1.8,1.2c0.2,0,0.4,0,0.7-0.1
		c1-0.4,1.5-1.4,1.1-2.4L49.8,3.6z"/>
	<path class="st0" d="M46.4,19.7h0.7h1.6c0.3,0,0.6-0.2,0.6-0.4V19c0-0.2-0.3-0.4-0.6-0.4h-1.6h-0.7h-2.3c-0.3,0-0.6,0.2-0.6,0.4v0.3
		c0,0.2,0.3,0.4,0.6,0.4H46.4z"/>
	<path class="st0" d="M50,22.4h-3h-0.7h-3.7c-0.3,0-0.6,0.2-0.6,0.4v0.3c0,0.2,0.3,0.4,0.6,0.4h3.7h0.7h3c0.3,0,0.6-0.2,0.6-0.4v-0.3
		C50.6,22.6,50.4,22.4,50,22.4z"/>
	<path class="st0" d="M241.2,5.6h2.3c0.2,0,0.4-0.2,0.4-0.4V0.4c0-0.2-0.2-0.4-0.4-0.4h-2.3c-0.2,0-0.4,0.2-0.4,0.4v4.7
		C240.8,5.4,241,5.6,241.2,5.6z"/>
	<path class="st0" d="M243.5,26.6h-2.3c-0.2,0-0.4,0.2-0.4,0.4v4.7c0,0.2,0.2,0.4,0.4,0.4h2.3c0.2,0,0.4-0.2,0.4-0.4V27
		C243.9,26.8,243.7,26.6,243.5,26.6z"/>
	<path class="st0" d="M238.8,27.4c-2.5-0.4-3.5-1.5-3.6-1.5c-0.7-0.8-1.9-0.9-2.7-0.2c-0.8,0.7-0.9,1.9-0.2,2.7c0.2,0.3,2.1,2.3,6.3,2.8
		c0.2,0,0.5-0.2,0.5-0.4v-3C239.2,27.6,239,27.4,238.8,27.4z"/>
	<path class="st0" d="M240.6,13.2c-1.3,0-4.4-0.4-4.4-3.9c0-2,1.1-3.3,2.7-4c0.1-0.1,0.2-0.2,0.2-0.4V1.8c0-0.3-0.3-0.5-0.5-0.4
		c-3.8,1.2-6.2,4.2-6.2,7.9c0,5.3,4.1,7.6,8.1,7.6c0,0,0,0,0,0c0.1,0,8.4,0.4,8.4,5.6c0,0.9,0,3.2-3.2,4.3
		c-0.2,0.1-0.3,0.2-0.3,0.4v3.1c0,0.3,0.3,0.5,0.5,0.4c5.9-1.6,6.7-6,6.7-8.2C252.8,15.5,244.8,13.4,240.6,13.2z"/>
	<path class="st0" d="M245.8,5.3c1.8,0.7,3,1.6,3,1.6c0.3,0.3,0.8,0.4,1.2,0.4c0.6,0,1.1-0.2,1.5-0.7c0.6-0.8,0.5-2-0.3-2.6
		c-0.1-0.1-2.3-1.8-5.5-2.7c0,0-0.2,0-0.2,0.1c0,0.1,0,0.6,0,0.6c0,0.2,0.1,0.3,0.3,0.4c0.5,0.2,0.8,0.3,0.8,0.3
		c2.3,0.8,3.9,2.1,3.9,2.1c0.2,0.1,0.3,0.3,0.3,0.6c0,0.2,0,0.4-0.2,0.6c-0.2,0.2-0.4,0.3-0.7,0.3c-0.1,0-0.3,0-0.5-0.2
		c-0.1,0-1.2-0.9-2.9-1.6l-0.8-0.3c0,0-0.2-0.1-0.2,0.2c0,0.3,0,0.6,0,0.6C245.5,5.1,245.6,5.2,245.8,5.3z"/>
	<path class="st0" d="M278.3,5.6h2.3c0.2,0,0.4-0.2,0.4-0.4V0.4c0-0.2-0.2-0.4-0.4-0.4h-2.3c-0.2,0-0.4,0.2-0.4,0.4v4.7
		C277.9,5.4,278.1,5.6,278.3,5.6z"/>
	<path class="st0" d="M280.6,26.6h-2.3c-0.2,0-0.4,0.2-0.4,0.4v4.7c0,0.2,0.2,0.4,0.4,0.4h2.3c0.2,0,0.4-0.2,0.4-0.4V27
		C281,26.8,280.8,26.6,280.6,26.6z"/>
	<path class="st0" d="M277.7,13.2c-1.3,0-4.4-0.4-4.4-3.9c0-2,1.1-3.3,2.7-4c0.1-0.1,0.2-0.2,0.2-0.4V1.8c0-0.3-0.3-0.5-0.5-0.4
		c-3.8,1.2-6.2,4.2-6.2,7.9c0,5.3,4.1,7.6,8.1,7.6c0,0,0,0,0,0c0.1,0,8.4,0.4,8.4,5.6c0,0.9,0,3.2-3.2,4.3
		c-0.2,0.1-0.3,0.2-0.3,0.4v3.1c0,0.3,0.3,0.5,0.5,0.4c5.9-1.6,6.7-6,6.7-8.2C289.8,15.5,281.9,13.4,277.7,13.2z"/>
	<path class="st0" d="M282.9,5.3c1.8,0.7,3,1.6,3,1.6c0.3,0.3,0.8,0.4,1.2,0.4c0.6,0,1.1-0.2,1.5-0.7c0.6-0.8,0.5-2-0.3-2.6
		c-0.1-0.1-2.3-1.8-5.5-2.7c0,0-0.2,0-0.2,0.1c0,0.1,0,0.6,0,0.6c0,0.2,0.1,0.3,0.3,0.4c0.5,0.2,0.8,0.3,0.8,0.3
		c2.3,0.8,3.9,2.1,3.9,2.1c0.2,0.1,0.3,0.3,0.3,0.6c0,0.2,0,0.4-0.2,0.6c-0.2,0.2-0.4,0.3-0.7,0.3c-0.1,0-0.3,0-0.5-0.2
		c-0.1,0-1.2-0.9-2.9-1.6l-0.8-0.3c0,0-0.2-0.1-0.2,0.2c0,0.3,0,0.6,0,0.6C282.6,5.1,282.7,5.2,282.9,5.3z"/>
	<path class="st0" d="M270.9,26.2c0.3,0,0.5,0.1,0.7,0.3l0,0l0,0c0.1,0.1,1.2,1.2,3.6,1.7c0,0,0.3,0.1,0.5,0.1c0.1,0,0.2,0,0.3,0
		c0.2,0,0.2-0.2,0.2-0.2l0-0.4c0-0.2-0.2-0.4-0.3-0.4c-2.5-0.4-3.5-1.5-3.6-1.5c-0.4-0.4-0.9-0.6-1.4-0.6c-0.4,0-0.9,0.2-1.2,0.5
		c-0.8,0.7-0.9,1.9-0.2,2.7c0.2,0.3,2.1,2.3,6.3,2.8c0,0,0,0,0.1,0c0.2,0,0.4-0.2,0.4-0.4c0,0,0,0,0-0.3c0-0.3-0.3-0.3-0.3-0.3
		l-0.7-0.1c-3.4-0.6-4.9-2.3-5-2.4c-0.2-0.2-0.2-0.4-0.2-0.6c0-0.2,0.1-0.4,0.3-0.6C270.5,26.3,270.7,26.2,270.9,26.2z"/>
	<path class="st0" d="M82.6,8.7C82.8,8.9,83,9,83.2,8.8l1.9-1.2c0.2-0.1,0.2-0.4,0.1-0.6l-2.6-4c-0.1-0.2-0.4-0.2-0.6-0.1l-1.9,1.2
		c-0.2,0.1-0.2,0.4-0.1,0.6L82.6,8.7z"/>
	<path class="st0" d="M98.2,4.2c-2.4-1.7-5.2-2.5-8.3-2.5c-1.8,0-3.5,0.3-5.1,0.9c-0.2,0.1-0.3,0.4-0.2,0.6l1.7,2.6c0.1,0.2,0.3,0.2,0.5,0.2
		c1-0.3,2-0.5,3.1-0.5c2.3,0,4.3,0.6,6.1,1.8c0.8,0.6,2,0.4,2.6-0.3C99.3,6.1,99.1,4.8,98.2,4.2z"/>
	<path class="st0" d="M79.4,16.5c0-2.2,0.7-4.4,2-6.2c0.1-0.1,0.1-0.3,0-0.5l-0.2-0.4c0,0-0.2-0.3-0.5,0c-1.5,2-2.4,4.5-2.4,7v0v0
		c0,2.5,0.8,5,2.4,7c0.3,0.3,0.5,0,0.5,0l0.2-0.4c0.1-0.1,0.1-0.3,0-0.5C80.1,20.9,79.4,18.7,79.4,16.5L79.4,16.5L79.4,16.5z"/>
	<path class="st0" d="M85.1,25.4l-1.9-1.2c-0.2-0.1-0.4-0.1-0.6,0.1l-2.6,4c-0.1,0.2-0.1,0.4,0.1,0.6l1.9,1.2c0.2,0.1,0.4,0.1,0.6-0.1l2.6-4
		C85.3,25.7,85.3,25.5,85.1,25.4z"/>
	<path class="st0" d="M96,25.7c-1.8,1.2-3.8,1.8-6.1,1.8c-1.1,0-2.1-0.2-3.1-0.5c-0.2-0.1-0.4,0-0.5,0.2l-1.7,2.6c-0.1,0.2,0,0.5,0.2,0.6
		c1.6,0.6,3.3,0.9,5.1,0.9c3.1,0,5.9-0.9,8.3-2.5c0.9-0.6,1.1-1.9,0.4-2.7C98,25.3,96.8,25.1,96,25.7z"/>
	<path class="st0" d="M75.6,16.5L75.6,16.5L75.6,16.5c0-3.5,1.3-6.8,3.6-9.5c0.1-0.1,0.1-0.3,0-0.5c0,0-0.1-0.1-0.2-0.3c-0.2-0.2-0.4-0.1-0.5,0
		c-2.6,2.8-4,6.4-4,10.3v0v0c0,3.8,1.4,7.4,4,10.3c0.1,0.1,0.3,0.3,0.5,0c0.2-0.2,0.2-0.3,0.2-0.3c0.1-0.2,0.1-0.4,0-0.5
		C76.9,23.3,75.6,20,75.6,16.5z"/>
</g>
</svg>
