
<svg width="48px" height="48px" viewBox="0 0 48 48" version="1.1" xmlns="http://www.w3.org/2000/svg" xmlns:xlink="http://www.w3.org/1999/xlink">
    <!-- Generator: Sketch 49.1 (51147) - http://www.bohemiancoding.com/sketch -->
    <desc>Created with Sketch.</desc>
    <defs></defs>
    <g id="Symbols" stroke="none" stroke-width="1" fill="none" fill-rule="evenodd">
        <g id="icons/age/16+">
            <rect id="Rectangle" stroke="#000000" stroke-width="2" x="1" y="1" width="46" height="46"></rect>
            <path d="M15.953125,29.4921875 L13.6953125,29.4921875 L13.6953125,20.7890625 L11,21.625 L11,19.7890625 L15.7109375,18.1015625 L15.953125,18.1015625 L15.953125,29.4921875 Z M25.7734375,18 L25.7734375,19.859375 L25.5546875,19.859375 C24.5338491,19.8750001 23.7122427,20.1406224 23.0898438,20.65625 C22.4674448,21.1718776 22.0937506,21.8880162 21.96875,22.8046875 C22.5729197,22.1901011 23.3359329,21.8828125 24.2578125,21.8828125 C25.2474008,21.8828125 26.0338512,22.2369756 26.6171875,22.9453125 C27.2005238,23.6536494 27.4921875,24.5859317 27.4921875,25.7421875 C27.4921875,26.4817745 27.3320329,27.1510387 27.0117188,27.75 C26.6914046,28.3489613 26.2382842,28.8151025 25.6523438,29.1484375 C25.0664033,29.4817725 24.4036495,29.6484375 23.6640625,29.6484375 C22.4661398,29.6484375 21.4987016,29.231775 20.7617188,28.3984375 C20.0247359,27.5651 19.65625,26.453132 19.65625,25.0625 L19.65625,24.25 C19.65625,23.0156188 19.8893206,21.925786 20.3554688,20.9804688 C20.8216169,20.0351515 21.4908811,19.303388 22.3632812,18.7851562 C23.2356814,18.2669245 24.2473901,18.0052084 25.3984375,18 L25.7734375,18 Z M23.5703125,23.6953125 C23.2057273,23.6953125 22.8750015,23.7903636 22.578125,23.9804688 C22.2812485,24.1705739 22.0625007,24.4218734 21.921875,24.734375 L21.921875,25.421875 C21.921875,26.1770871 22.070311,26.766925 22.3671875,27.1914062 C22.664064,27.6158875 23.0807265,27.828125 23.6171875,27.828125 C24.1015649,27.828125 24.4934881,27.6367207 24.7929688,27.2539062 C25.0924494,26.8710918 25.2421875,26.375003 25.2421875,25.765625 C25.2421875,25.1458302 25.0911473,24.6458352 24.7890625,24.265625 C24.4869777,23.8854148 24.0807317,23.6953125 23.5703125,23.6953125 Z M33.4765625,23.125 L36.296875,23.125 L36.296875,25.1640625 L33.4765625,25.1640625 L33.4765625,28.3515625 L31.328125,28.3515625 L31.328125,25.1640625 L28.5,25.1640625 L28.5,23.125 L31.328125,23.125 L31.328125,20.0703125 L33.4765625,20.0703125 L33.4765625,23.125 Z" id="16+" fill="#000000"></path>
        </g>
    </g>
</svg>
