
<svg width="24px" height="25px" viewBox="0 0 24 25" version="1.1" xmlns="http://www.w3.org/2000/svg" xmlns:xlink="http://www.w3.org/1999/xlink">
    <!-- Generator: Sketch 49.1 (51147) - http://www.bohemiancoding.com/sketch -->
    <desc>Created with Sketch.</desc>
    <defs></defs>
    <g id="Symbols" stroke="none" stroke-width="1" fill="none" fill-rule="evenodd">
        <g id="icon/social/instagram" fill="#000000">
            <path d="M22.6749765,24.2627789 L1.32502352,24.2627789 C0.592662277,24.2627789 0,23.6701167 0,22.9391665 L0,1.58780247 C0,0.855441224 0.592662277,0.262778947 1.32502352,0.262778947 L22.6749765,0.262778947 C23.4073377,0.262778947 24,0.855441224 24,1.58780247 L24,22.9391665 C24,23.6701167 23.4073377,24.2627789 22.6749765,24.2627789 Z M12.5162105,7 C9.46947368,7 7,9.47073684 7,12.5162105 C7,15.5629474 9.46947368,18.0324211 12.5162105,18.0324211 C15.5629474,18.0324211 18.0324211,15.5629474 18.0324211,12.5162105 C18.0324211,9.47073684 15.5629474,7 12.5162105,7 Z M19.5781053,6.28968421 C19.5781053,5.57852632 19.0008421,5 18.2884211,5 C17.5772632,5 17,5.57852632 17,6.28968421 C17,7.00084211 17.5772632,7.57936842 18.2884211,7.57936842 C19.0008421,7.57936842 19.5781053,7.00084211 19.5781053,6.28968421 Z" id="Combined-Shape"></path>
            <path d="M12.5162105,16.0972632 C10.5381053,16.0972632 8.93515789,14.4930526 8.93515789,12.5162105 C8.93515789,10.5393684 10.5381053,8.93642105 12.5162105,8.93642105 C14.4930526,8.93642105 16.096,10.5393684 16.096,12.5162105 C16.096,14.4930526 14.4930526,16.0972632 12.5162105,16.0972632" id="Fill-14"></path>
        </g>
    </g>
</svg>
