
<svg width="24px" height="24px" viewBox="0 0 24 24" version="1.1" xmlns="http://www.w3.org/2000/svg" xmlns:xlink="http://www.w3.org/1999/xlink">
    <!-- Generator: Sketch 49.1 (51147) - http://www.bohemiancoding.com/sketch -->
    <desc>Created with Sketch.</desc>
    <defs></defs>
    <g id="Symbols" stroke="none" stroke-width="1" fill="none" fill-rule="evenodd">
        <g id="icon/social/vk" fill="#000000">
            <path d="M22.6763098,24 L1.32369025,24 C0.592697125,24 0,23.4073377 0,22.6763876 L0,1.32502352 C0,0.592662277 0.592697125,0 1.32369025,0 L22.6763098,0 C23.4073029,0 24,0.592662277 24,1.32502352 L24,22.6763876 C24,23.4073377 23.4073029,24 22.6763098,24 Z M12.1941291,16.3524541 L13.073287,16.3524541 C13.073287,16.3524541 13.3385501,16.3234015 13.473708,16.1768752 C13.5987607,16.0429804 13.5949712,15.791612 13.5949712,15.791612 C13.5949712,15.791612 13.577287,14.6118225 14.1242343,14.4375067 C14.6648659,14.2669804 15.3570764,15.5781383 16.0909712,16.0821383 C16.6467607,16.463612 17.0686554,16.3789804 17.0686554,16.3789804 L19.0316028,16.3524541 C19.0316028,16.3524541 20.0598133,16.2892962 19.5722343,15.4821383 C19.5318133,15.415191 19.2880238,14.8846646 18.1120238,13.7932962 C16.8804449,12.6488752 17.0459185,12.8345594 18.5288659,10.8577173 C19.4320238,9.65392779 19.793287,8.9187699 19.6796028,8.60424358 C19.5722343,8.30487516 18.9078133,8.38319095 18.9078133,8.38319095 L16.697287,8.39708569 C16.697287,8.39708569 16.5343396,8.375612 16.4118133,8.447612 C16.2930764,8.519612 16.217287,8.68508569 16.217287,8.68508569 C16.217287,8.68508569 15.8673922,9.61603306 15.401287,10.4092962 C14.4160238,12.0804541 14.0219185,12.167612 13.8614975,12.0640331 C13.4876028,11.8227699 13.5810764,11.0926646 13.5810764,10.5747699 C13.5810764,8.95540148 13.8261291,8.27834885 13.1023396,8.10403306 C12.8623396,8.04592779 12.6854975,8.00803306 12.0703396,8.00171727 C11.2808659,7.99413832 10.6139185,8.00424358 10.2362343,8.18866463 C9.98360276,8.31245411 9.7903396,8.58782253 9.90907644,8.60171727 C10.0556028,8.62192779 10.385287,8.69266463 10.5608659,8.93013832 C10.7882343,9.23834885 10.7793922,9.93055937 10.7793922,9.93055937 C10.7793922,9.93055937 10.9094975,11.8379278 10.4762343,12.0741383 C10.1781291,12.2370857 9.76886592,11.9048752 8.89097118,10.3890857 C8.44128697,9.61224358 8.10276065,8.75329621 8.10276065,8.75329621 C8.10276065,8.75329621 8.03707644,8.59287516 7.91960276,8.50698042 C7.77812908,8.40340148 7.58107644,8.37055937 7.58107644,8.37055937 L5.48044487,8.38319095 C5.48044487,8.38319095 5.16465539,8.39203306 5.04844487,8.52971727 C4.94486592,8.65098042 5.03960276,8.90487516 5.03960276,8.90487516 C5.03960276,8.90487516 6.6854975,12.751191 8.54739223,14.6914015 C10.2551817,16.4699278 12.1941291,16.3524541 12.1941291,16.3524541 Z" id="Combined-Shape"></path>
        </g>
    </g>
</svg>
