
<svg width="48px" height="48px" viewBox="0 0 48 48" version="1.1" xmlns="http://www.w3.org/2000/svg" xmlns:xlink="http://www.w3.org/1999/xlink">
    <!-- Generator: Sketch 49.1 (51147) - http://www.bohemiancoding.com/sketch -->
    <desc>Created with Sketch.</desc>
    <defs></defs>
    <g id="Symbols" stroke="none" stroke-width="1" fill="none" fill-rule="evenodd">
        <g id="icons/age/0+">
            <rect id="Rectangle" stroke="#000000" stroke-width="2" x="1" y="1" width="46" height="46"></rect>
            <path d="M23.6875,24.828125 C23.6875,26.4010495 23.3619824,27.6041625 22.7109375,28.4375 C22.0598926,29.2708375 21.1067771,29.6875 19.8515625,29.6875 C18.611973,29.6875 17.6640658,29.2786499 17.0078125,28.4609375 C16.3515592,27.6432251 16.0156251,26.4713618 16,24.9453125 L16,22.8515625 C16,21.2630129 16.3294238,20.0572958 16.9882812,19.234375 C17.6471387,18.4114542 18.596348,18 19.8359375,18 C21.075527,18 22.0234342,18.407548 22.6796875,19.2226562 C23.3359408,20.0377645 23.6718749,21.2083257 23.6875,22.734375 L23.6875,24.828125 Z M21.4296875,22.53125 C21.4296875,21.588537 21.3007825,20.9023459 21.0429688,20.4726562 C20.785155,20.0429666 20.3828152,19.828125 19.8359375,19.828125 C19.3046848,19.828125 18.9127617,20.03255 18.6601562,20.4414062 C18.4075508,20.8502625 18.2734376,21.489579 18.2578125,22.359375 L18.2578125,25.125 C18.2578125,26.052088 18.3841133,26.7408832 18.6367188,27.1914062 C18.8893242,27.6419293 19.294268,27.8671875 19.8515625,27.8671875 C20.4036486,27.8671875 20.8020821,27.6510438 21.046875,27.21875 C21.2916679,26.7864562 21.4192708,26.1250045 21.4296875,25.234375 L21.4296875,22.53125 Z M29.859375,23.1640625 L32.6796875,23.1640625 L32.6796875,25.203125 L29.859375,25.203125 L29.859375,28.390625 L27.7109375,28.390625 L27.7109375,25.203125 L24.8828125,25.203125 L24.8828125,23.1640625 L27.7109375,23.1640625 L27.7109375,20.109375 L29.859375,20.109375 L29.859375,23.1640625 Z" id="0+" fill="#000000"></path>
        </g>
    </g>
</svg>
