
<svg width="48px" height="48px" viewBox="0 0 48 48" version="1.1" xmlns="http://www.w3.org/2000/svg" xmlns:xlink="http://www.w3.org/1999/xlink">
    <!-- Generator: Sketch 49.1 (51147) - http://www.bohemiancoding.com/sketch -->
    <desc>Created with Sketch.</desc>
    <defs></defs>
    <g id="Symbols" stroke="none" stroke-width="1" fill="none" fill-rule="evenodd">
        <g id="icons/age/16+">
            <rect id="Rectangle" stroke="#1A171B" stroke-width="2" x="1" y="1" width="46" height="46"></rect>
            <path d="M16.2109375,28 L13.953125,28 L13.953125,19.296875 L11.2578125,20.1328125 L11.2578125,18.296875 L15.96875,16.609375 L16.2109375,16.609375 L16.2109375,28 Z M27.5625,23.296875 C27.5625,24.8697995 27.2369824,26.0729125 26.5859375,26.90625 C25.9348926,27.7395875 24.9817771,28.15625 23.7265625,28.15625 C22.486973,28.15625 21.5390658,27.7473999 20.8828125,26.9296875 C20.2265592,26.1119751 19.8906251,24.9401118 19.875,23.4140625 L19.875,21.3203125 C19.875,19.7317629 20.2044238,18.5260458 20.8632812,17.703125 C21.5221387,16.8802042 22.471348,16.46875 23.7109375,16.46875 C24.950527,16.46875 25.8984342,16.876298 26.5546875,17.6914062 C27.2109408,18.5065145 27.5468749,19.6770757 27.5625,21.203125 L27.5625,23.296875 Z M25.3046875,21 C25.3046875,20.057287 25.1757825,19.3710959 24.9179688,18.9414062 C24.660155,18.5117166 24.2578152,18.296875 23.7109375,18.296875 C23.1796848,18.296875 22.7877617,18.5013 22.5351562,18.9101562 C22.2825508,19.3190125 22.1484376,19.958329 22.1328125,20.828125 L22.1328125,23.59375 C22.1328125,24.520838 22.2591133,25.2096332 22.5117188,25.6601562 C22.7643242,26.1106793 23.169268,26.3359375 23.7265625,26.3359375 C24.2786486,26.3359375 24.6770821,26.1197938 24.921875,25.6875 C25.1666679,25.2552062 25.2942708,24.5937545 25.3046875,23.703125 L25.3046875,21 Z M33.734375,21.6328125 L36.5546875,21.6328125 L36.5546875,23.671875 L33.734375,23.671875 L33.734375,26.859375 L31.5859375,26.859375 L31.5859375,23.671875 L28.7578125,23.671875 L28.7578125,21.6328125 L31.5859375,21.6328125 L31.5859375,18.578125 L33.734375,18.578125 L33.734375,21.6328125 Z" id="10+" fill="#1A171B"></path>
        </g>
    </g>
</svg>
