
<svg width="48px" height="48px" viewBox="0 0 48 48" version="1.1" xmlns="http://www.w3.org/2000/svg" xmlns:xlink="http://www.w3.org/1999/xlink">
    <!-- Generator: Sketch 49.1 (51147) - http://www.bohemiancoding.com/sketch -->
    <desc>Created with Sketch.</desc>
    <defs></defs>
    <g id="Symbols" stroke="none" stroke-width="1" fill="none" fill-rule="evenodd">
        <g id="icons/age/12+">
            <rect id="Rectangle" stroke="#000000" stroke-width="2" x="1" y="1" width="46" height="46"></rect>
            <path d="M15.953125,29.53125 L13.6953125,29.53125 L13.6953125,20.828125 L11,21.6640625 L11,19.828125 L15.7109375,18.140625 L15.953125,18.140625 L15.953125,29.53125 Z M27.4453125,29.53125 L19.6484375,29.53125 L19.6484375,27.984375 L23.328125,24.0625 C23.8333359,23.5104139 24.20703,23.0286479 24.4492188,22.6171875 C24.6914075,22.2057271 24.8125,21.815106 24.8125,21.4453125 C24.8125,20.9401016 24.6848971,20.5429702 24.4296875,20.2539062 C24.1744779,19.9648423 23.8098982,19.8203125 23.3359375,19.8203125 C22.8255183,19.8203125 22.4231786,19.996092 22.1289063,20.3476562 C21.8346339,20.6992205 21.6875,21.1614555 21.6875,21.734375 L19.421875,21.734375 C19.421875,21.0416632 19.5872379,20.408857 19.9179688,19.8359375 C20.2486996,19.263018 20.7161428,18.8138037 21.3203125,18.4882812 C21.9244822,18.1627588 22.6093712,18 23.375,18 C24.5468809,18 25.457028,18.2812472 26.1054688,18.84375 C26.7539095,19.4062528 27.078125,20.2005157 27.078125,21.2265625 C27.078125,21.7890653 26.9322931,22.3619763 26.640625,22.9453125 C26.3489569,23.5286487 25.8489619,24.2083295 25.140625,24.984375 L22.5546875,27.7109375 L27.4453125,27.7109375 L27.4453125,29.53125 Z M33.4765625,23.1640625 L36.296875,23.1640625 L36.296875,25.203125 L33.4765625,25.203125 L33.4765625,28.390625 L31.328125,28.390625 L31.328125,25.203125 L28.5,25.203125 L28.5,23.1640625 L31.328125,23.1640625 L31.328125,20.109375 L33.4765625,20.109375 L33.4765625,23.1640625 Z" id="12+" fill="#000000"></path>
        </g>
    </g>
</svg>
