
<svg width="48px" height="48px" viewBox="0 0 48 48" version="1.1" xmlns="http://www.w3.org/2000/svg" xmlns:xlink="http://www.w3.org/1999/xlink">
    <!-- Generator: Sketch 49.1 (51147) - http://www.bohemiancoding.com/sketch -->
    <desc>Created with Sketch.</desc>
    <defs></defs>
    <g id="Symbols" stroke="none" stroke-width="1" fill="none" fill-rule="evenodd">
        <g id="icons/age/18+">
            <rect id="Rectangle" stroke="#000000" stroke-width="2" x="1" y="1" width="46" height="46"></rect>
            <path d="M15.953125,29.53125 L13.6953125,29.53125 L13.6953125,20.828125 L11,21.6640625 L11,19.828125 L15.7109375,18.140625 L15.953125,18.140625 L15.953125,29.53125 Z M27.0625,21.1796875 C27.0625,21.7317736 26.9244805,22.221352 26.6484375,22.6484375 C26.3723945,23.075523 25.9921899,23.4166654 25.5078125,23.671875 C26.0598986,23.9375013 26.4973942,24.3033831 26.8203125,24.7695312 C27.1432308,25.2356794 27.3046875,25.783851 27.3046875,26.4140625 C27.3046875,27.4244842 26.9609409,28.2226533 26.2734375,28.8085938 C25.5859341,29.3945342 24.6510476,29.6875 23.46875,29.6875 C22.2864524,29.6875 21.3489618,29.3932321 20.65625,28.8046875 C19.9635382,28.2161429 19.6171875,27.4192759 19.6171875,26.4140625 C19.6171875,25.783851 19.7786442,25.2343773 20.1015625,24.765625 C20.4244808,24.2968727 20.8593723,23.932293 21.40625,23.671875 C20.9218726,23.4166654 20.5429701,23.075523 20.2695312,22.6484375 C19.9960924,22.221352 19.859375,21.7317736 19.859375,21.1796875 C19.859375,20.2109327 20.1822884,19.438805 20.828125,18.8632812 C21.4739616,18.2877575 22.351557,18 23.4609375,18 C24.5651097,18 25.441403,18.2851534 26.0898438,18.8554688 C26.7382845,19.4257841 27.0625,20.2005159 27.0625,21.1796875 Z M25.0390625,26.25 C25.0390625,25.7552059 24.8958348,25.3593765 24.609375,25.0625 C24.3229152,24.7656235 23.9375024,24.6171875 23.453125,24.6171875 C22.9739559,24.6171875 22.5911473,24.7643214 22.3046875,25.0585938 C22.0182277,25.3528661 21.875,25.7499975 21.875,26.25 C21.875,26.7343774 22.0156236,27.1249985 22.296875,27.421875 C22.5781264,27.7187515 22.9687475,27.8671875 23.46875,27.8671875 C23.9583358,27.8671875 24.3424465,27.7239598 24.6210938,27.4375 C24.899741,27.1510402 25.0390625,26.7552109 25.0390625,26.25 Z M24.8046875,21.2890625 C24.8046875,20.846352 24.6875012,20.4908868 24.453125,20.2226562 C24.2187488,19.9544257 23.888023,19.8203125 23.4609375,19.8203125 C23.0390604,19.8203125 22.7109387,19.9505195 22.4765625,20.2109375 C22.2421863,20.4713555 22.125,20.8307269 22.125,21.2890625 C22.125,21.7421898 22.2421863,22.1067695 22.4765625,22.3828125 C22.7109387,22.6588555 23.0416645,22.796875 23.46875,22.796875 C23.8958355,22.796875 24.2252593,22.6588555 24.4570312,22.3828125 C24.6888032,22.1067695 24.8046875,21.7421898 24.8046875,21.2890625 Z M33.4765625,23.1640625 L36.296875,23.1640625 L36.296875,25.203125 L33.4765625,25.203125 L33.4765625,28.390625 L31.328125,28.390625 L31.328125,25.203125 L28.5,25.203125 L28.5,23.1640625 L31.328125,23.1640625 L31.328125,20.109375 L33.4765625,20.109375 L33.4765625,23.1640625 Z" id="18+" fill="#000000"></path>
        </g>
    </g>
</svg>
